<mxfile host="app.diagrams.net" modified="2021-02-05T21:55:16.285Z" agent="5.0 (Macintosh; Intel Mac OS X 10_15_6) AppleWebKit/537.36 (KHTML, like Gecko) Chrome/88.0.4324.96 Safari/537.36" etag="Mpzklk8E0BnJiqCgZJAx" version="14.2.9" type="github" pages="4">
  <diagram id="IwGoDYMSzOG72_LcMlLt" name="[0] lab topo">
    <mxGraphModel dx="2052" dy="1149" grid="1" gridSize="1" guides="1" tooltips="1" connect="1" arrows="1" fold="1" page="1" pageScale="1" pageWidth="827" pageHeight="1169" background="#4D5766" math="0" shadow="0">
      <root>
        <mxCell id="0" />
        <mxCell id="1" parent="0" />
        <mxCell id="HUSUJuAqTIokaHn7cn6M-1" value="" style="rounded=0;whiteSpace=wrap;html=1;fontSize=12;align=center;fontFamily=Manrope;fontSource=https%3A%2F%2Ffonts.googleapis.com%2Fcss%3Ffamily%3DManrope;fontColor=#FFFFFF;dashed=1;strokeColor=none;fillColor=#DDE9F5;" parent="1" vertex="1">
          <mxGeometry x="40" y="205" width="430" height="285" as="geometry" />
        </mxCell>
        <mxCell id="HUSUJuAqTIokaHn7cn6M-2" value="&lt;span style=&quot;font-size: 14px&quot;&gt;Lab host&lt;/span&gt;" style="rounded=0;whiteSpace=wrap;html=1;fontSize=12;align=center;fontFamily=Manrope;fontSource=https%3A%2F%2Ffonts.googleapis.com%2Fcss%3Ffamily%3DManrope;dashed=1;strokeColor=none;fillColor=#98A2AE;fontColor=#FFFFFF;" parent="1" vertex="1">
          <mxGeometry x="40" y="185" width="430" height="20" as="geometry" />
        </mxCell>
        <mxCell id="HUSUJuAqTIokaHn7cn6M-3" value="" style="rounded=0;whiteSpace=wrap;html=1;fontSize=12;align=center;strokeColor=none;fontFamily=Manrope;fontSource=https%3A%2F%2Ffonts.googleapis.com%2Fcss%3Ffamily%3DManrope;fontColor=#DDE9F5;fillColor=#BEC8D2;" parent="1" vertex="1">
          <mxGeometry x="76.5" y="365" width="163.5" height="107.5" as="geometry" />
        </mxCell>
        <mxCell id="HUSUJuAqTIokaHn7cn6M-4" value="SR Linux" style="rounded=0;whiteSpace=wrap;html=1;fontSize=12;align=center;strokeColor=none;fontFamily=Manrope;fontSource=https%3A%2F%2Ffonts.googleapis.com%2Fcss%3Ffamily%3DManrope;fontColor=#FFFFFF;fillColor=#124191;" parent="1" vertex="1">
          <mxGeometry x="80" y="400" width="120" height="37.5" as="geometry" />
        </mxCell>
        <mxCell id="HUSUJuAqTIokaHn7cn6M-5" value="mgmt" style="rounded=0;whiteSpace=wrap;html=1;fontFamily=Manrope;fontSize=12;fontColor=#FFFFFF;align=center;fillColor=#4BDD33;strokeColor=none;" parent="1" vertex="1">
          <mxGeometry x="118.25" y="385" width="43.5" height="15" as="geometry" />
        </mxCell>
        <mxCell id="HUSUJuAqTIokaHn7cn6M-6" value="" style="rounded=0;whiteSpace=wrap;html=1;fontSize=12;align=center;strokeColor=none;fontFamily=Manrope;fontSource=https%3A%2F%2Ffonts.googleapis.com%2Fcss%3Ffamily%3DManrope;fontColor=#FFFFFF;fillColor=#BEC8D2;" parent="1" vertex="1">
          <mxGeometry x="76.5" y="216" width="383.5" height="126" as="geometry" />
        </mxCell>
        <mxCell id="HUSUJuAqTIokaHn7cn6M-7" value="&lt;font face=&quot;Fira Code&quot; data-font-src=&quot;https://fonts.googleapis.com/css?family=Fira+Code&quot; style=&quot;font-size: 10px&quot;&gt;&lt;br&gt;&lt;/font&gt;" style="rounded=0;whiteSpace=wrap;html=1;fontSize=12;align=left;strokeColor=none;fontFamily=Manrope;fontSource=https%3A%2F%2Ffonts.googleapis.com%2Fcss%3Ffamily%3DManrope;fontColor=#FFFFFF;spacingLeft=4;fillColor=#124191;verticalAlign=middle;connectable=0;" parent="1" vertex="1">
          <mxGeometry x="85" y="240" width="365" height="95" as="geometry" />
        </mxCell>
        <mxCell id="HUSUJuAqTIokaHn7cn6M-8" value="veth&lt;font color=&quot;#bec8d2&quot;&gt;XXX&lt;/font&gt;" style="rounded=0;whiteSpace=wrap;html=1;fontFamily=Manrope;fontSize=12;fontColor=#FFFFFF;align=center;fillColor=#4BDD33;strokeColor=none;" parent="1" vertex="1">
          <mxGeometry x="113.63" y="307.5" width="52.75" height="17.5" as="geometry" />
        </mxCell>
        <mxCell id="HUSUJuAqTIokaHn7cn6M-9" style="edgeStyle=orthogonalEdgeStyle;rounded=0;orthogonalLoop=1;jettySize=auto;html=1;exitX=0.5;exitY=0;exitDx=0;exitDy=0;entryX=0.5;entryY=1;entryDx=0;entryDy=0;fontFamily=Manrope;fontSize=12;fontColor=#FFFFFF;endArrow=oval;endFill=1;startArrow=oval;startFill=1;strokeColor=#4BDD33;" parent="1" source="HUSUJuAqTIokaHn7cn6M-5" target="HUSUJuAqTIokaHn7cn6M-8" edge="1">
          <mxGeometry relative="1" as="geometry" />
        </mxCell>
        <mxCell id="HUSUJuAqTIokaHn7cn6M-10" value="&lt;font color=&quot;#dde9f5&quot;&gt;netns:&lt;/font&gt;&amp;nbsp;default" style="rounded=0;whiteSpace=wrap;html=1;fontSize=12;align=center;fontFamily=Manrope;fontSource=https%3A%2F%2Ffonts.googleapis.com%2Fcss%3Ffamily%3DManrope;fontColor=#FFFFFF;fillColor=#98A2AE;rotation=0;strokeColor=none;horizontal=0;verticalAlign=middle;" parent="1" vertex="1">
          <mxGeometry x="50" y="216" width="26.5" height="126" as="geometry" />
        </mxCell>
        <mxCell id="HUSUJuAqTIokaHn7cn6M-11" value="&lt;font color=&quot;#dde9f5&quot;&gt;netns:&lt;/font&gt;&amp;nbsp;container1" style="rounded=0;whiteSpace=wrap;html=1;fontSize=12;align=center;fontFamily=Manrope;fontSource=https%3A%2F%2Ffonts.googleapis.com%2Fcss%3Ffamily%3DManrope;fontColor=#FFFFFF;fillColor=#98A2AE;rotation=0;strokeColor=none;horizontal=0;verticalAlign=middle;" parent="1" vertex="1">
          <mxGeometry x="50" y="365" width="26.5" height="107.5" as="geometry" />
        </mxCell>
        <mxCell id="HUSUJuAqTIokaHn7cn6M-12" value="&lt;font color=&quot;#bec8d2&quot;&gt;docker network:&lt;/font&gt; clab&lt;font face=&quot;Fira Code&quot; data-font-src=&quot;https://fonts.googleapis.com/css?family=Fira+Code&quot; style=&quot;font-size: 10px&quot;&gt;&lt;br&gt;&lt;/font&gt;" style="rounded=0;whiteSpace=wrap;html=1;fontSize=12;align=left;strokeColor=none;fontFamily=Manrope;fontSource=https%3A%2F%2Ffonts.googleapis.com%2Fcss%3Ffamily%3DManrope;fontColor=#FFFFFF;spacingLeft=4;fillColor=#001135;" parent="1" vertex="1">
          <mxGeometry x="85" y="220" width="365" height="20" as="geometry" />
        </mxCell>
        <mxCell id="HUSUJuAqTIokaHn7cn6M-13" value="&lt;font&gt;Lab wiring diagram&lt;/font&gt;" style="text;html=1;align=center;verticalAlign=middle;resizable=0;points=[];autosize=1;fontSize=14;fontFamily=Manrope;fontStyle=0;fontColor=#FFFFFF;" parent="1" vertex="1">
          <mxGeometry x="185" y="490" width="135" height="25" as="geometry" />
        </mxCell>
        <mxCell id="HUSUJuAqTIokaHn7cn6M-14" value="br-&lt;font color=&quot;#98a2ae&quot;&gt;XXX&lt;/font&gt;" style="rounded=0;whiteSpace=wrap;html=1;fontSize=12;align=left;fontFamily=Manrope;fontSource=https%3A%2F%2Ffonts.googleapis.com%2Fcss%3Ffamily%3DManrope;dashed=1;strokeColor=none;fillColor=#DDE9F5;fontColor=#001135;spacingLeft=4;" parent="1" vertex="1">
          <mxGeometry x="102.25" y="290" width="307.75" height="17.5" as="geometry" />
        </mxCell>
        <mxCell id="HUSUJuAqTIokaHn7cn6M-15" value="&lt;font face=&quot;Fira Code&quot; data-font-src=&quot;https://fonts.googleapis.com/css?family=Fira+Code&quot;&gt;Pool&lt;br&gt;&lt;/font&gt;" style="rounded=0;whiteSpace=wrap;html=1;fontSize=12;align=center;strokeColor=none;fontFamily=Manrope;fontSource=https%3A%2F%2Ffonts.googleapis.com%2Fcss%3Ffamily%3DManrope;fontColor=#FFFFFF;spacingLeft=0;verticalAlign=middle;fillColor=#00C9FF;" parent="1" vertex="1">
          <mxGeometry x="102" y="245" width="34.25" height="35" as="geometry" />
        </mxCell>
        <mxCell id="HUSUJuAqTIokaHn7cn6M-16" value="&lt;font color=&quot;#98a2ae&quot; style=&quot;font-size: 12px ; line-height: 100%&quot;&gt;IPv4:&lt;/font&gt;&lt;span style=&quot;color: rgb(255 , 255 , 255)&quot;&gt;&amp;nbsp;&lt;/span&gt;&lt;font face=&quot;Fira Code&quot; data-font-src=&quot;https://fonts.googleapis.com/css?family=Fira+Code&quot; style=&quot;font-size: 10px&quot;&gt;172.20.20.0/24&lt;br&gt;&lt;span style=&quot;color: rgb(255 , 255 , 255) ; font-family: &amp;#34;manrope&amp;#34; ; font-size: 12px&quot;&gt;&lt;font color=&quot;#98a2ae&quot;&gt;IPv6:&lt;/font&gt;&amp;nbsp;&lt;/span&gt;&lt;font face=&quot;Fira Code&quot; data-font-src=&quot;https://fonts.googleapis.com/css?family=Fira+Code&quot;&gt;2001:172:20:20::/80&lt;/font&gt;&lt;/font&gt;" style="rounded=0;whiteSpace=wrap;html=1;fontSize=12;align=left;fontFamily=Manrope;fontSource=https%3A%2F%2Ffonts.googleapis.com%2Fcss%3Ffamily%3DManrope;dashed=1;strokeColor=none;fillColor=#DDE9F5;fontColor=#001135;" parent="1" vertex="1">
          <mxGeometry x="136.25" y="245" width="150" height="35" as="geometry" />
        </mxCell>
        <mxCell id="HUSUJuAqTIokaHn7cn6M-17" style="rounded=0;orthogonalLoop=1;jettySize=auto;html=1;fontFamily=Manrope;fontSize=12;fontColor=#FFFFFF;endArrow=oval;endFill=1;startArrow=oval;startFill=1;strokeColor=#4BDD33;" parent="1" edge="1">
          <mxGeometry relative="1" as="geometry">
            <mxPoint x="332.75" y="260" as="sourcePoint" />
            <mxPoint x="300" y="290" as="targetPoint" />
            <Array as="points">
              <mxPoint x="312.75" y="260" />
            </Array>
          </mxGeometry>
        </mxCell>
        <mxCell id="HUSUJuAqTIokaHn7cn6M-18" value="&lt;font face=&quot;Fira Code&quot; data-font-src=&quot;https://fonts.googleapis.com/css?family=Fira+Code&quot; style=&quot;font-size: 10px&quot;&gt;172.20.20.1&lt;/font&gt;" style="text;html=1;align=left;verticalAlign=middle;resizable=0;points=[];autosize=1;fontSize=14;fontFamily=Manrope;fontColor=#FFFFFF;" parent="1" vertex="1">
          <mxGeometry x="338.75" y="245" width="80" height="25" as="geometry" />
        </mxCell>
        <mxCell id="HUSUJuAqTIokaHn7cn6M-19" style="rounded=0;orthogonalLoop=1;jettySize=auto;html=1;fontFamily=Manrope;fontSize=12;fontColor=#FFFFFF;endArrow=oval;endFill=1;startArrow=oval;startFill=1;strokeColor=#4BDD33;" parent="1" edge="1">
          <mxGeometry relative="1" as="geometry">
            <mxPoint x="332.75" y="275" as="sourcePoint" />
            <mxPoint x="300" y="290" as="targetPoint" />
            <Array as="points">
              <mxPoint x="312.75" y="275" />
            </Array>
          </mxGeometry>
        </mxCell>
        <mxCell id="HUSUJuAqTIokaHn7cn6M-20" value="&lt;font face=&quot;Fira Code&quot; data-font-src=&quot;https://fonts.googleapis.com/css?family=Fira+Code&quot; style=&quot;font-size: 10px&quot;&gt;2001:172:20:20::1&lt;/font&gt;" style="text;html=1;align=left;verticalAlign=middle;resizable=0;points=[];autosize=1;fontSize=14;fontFamily=Manrope;fontColor=#FFFFFF;" parent="1" vertex="1">
          <mxGeometry x="338.75" y="260" width="115" height="25" as="geometry" />
        </mxCell>
        <mxCell id="HUSUJuAqTIokaHn7cn6M-21" value="" style="group" parent="1" vertex="1" connectable="0">
          <mxGeometry x="595" y="333" width="50" height="50" as="geometry" />
        </mxCell>
        <mxCell id="HUSUJuAqTIokaHn7cn6M-22" value="" style="group" parent="HUSUJuAqTIokaHn7cn6M-21" vertex="1" connectable="0">
          <mxGeometry width="50" height="50" as="geometry" />
        </mxCell>
        <mxCell id="HUSUJuAqTIokaHn7cn6M-23" value="" style="whiteSpace=wrap;html=1;aspect=fixed;fillColor=#001135;strokeColor=none;connectable=1;allowArrows=1;fontFamily=Manrope;fontSource=https%3A%2F%2Ffonts.googleapis.com%2Fcss%3Ffamily%3DManrope;" parent="HUSUJuAqTIokaHn7cn6M-22" vertex="1">
          <mxGeometry width="50" height="50" as="geometry" />
        </mxCell>
        <mxCell id="HUSUJuAqTIokaHn7cn6M-24" value="" style="endArrow=open;html=1;edgeStyle=orthogonalEdgeStyle;rounded=0;endFill=0;startSize=6;endSize=2;strokeColor=#FFFFFF;fontFamily=Manrope;fontSource=https%3A%2F%2Ffonts.googleapis.com%2Fcss%3Ffamily%3DManrope;" parent="HUSUJuAqTIokaHn7cn6M-22" edge="1">
          <mxGeometry width="83.33333333333334" height="83.33333333333334" as="geometry">
            <mxPoint x="5" y="20" as="sourcePoint" />
            <mxPoint x="18.333333333333336" y="5" as="targetPoint" />
            <Array as="points">
              <mxPoint x="18.333333333333336" y="20" />
            </Array>
          </mxGeometry>
        </mxCell>
        <mxCell id="HUSUJuAqTIokaHn7cn6M-25" value="" style="endArrow=open;html=1;edgeStyle=orthogonalEdgeStyle;rounded=0;endFill=0;startSize=6;endSize=2;strokeColor=#FFFFFF;fontFamily=Manrope;fontSource=https%3A%2F%2Ffonts.googleapis.com%2Fcss%3Ffamily%3DManrope;" parent="HUSUJuAqTIokaHn7cn6M-22" edge="1">
          <mxGeometry width="83.33333333333334" height="83.33333333333334" as="geometry">
            <mxPoint x="18.333333333333336" y="45" as="sourcePoint" />
            <mxPoint x="5" y="31.666666666666668" as="targetPoint" />
            <Array as="points">
              <mxPoint x="18.333333333333336" y="31.666666666666668" />
            </Array>
          </mxGeometry>
        </mxCell>
        <mxCell id="HUSUJuAqTIokaHn7cn6M-26" value="" style="endArrow=open;html=1;edgeStyle=orthogonalEdgeStyle;rounded=0;endFill=0;startSize=6;endSize=2;strokeColor=#FFFFFF;fontFamily=Manrope;fontSource=https%3A%2F%2Ffonts.googleapis.com%2Fcss%3Ffamily%3DManrope;" parent="HUSUJuAqTIokaHn7cn6M-22" edge="1">
          <mxGeometry width="83.33333333333334" height="83.33333333333334" as="geometry">
            <mxPoint x="30" y="5" as="sourcePoint" />
            <mxPoint x="45" y="20" as="targetPoint" />
            <Array as="points">
              <mxPoint x="30" y="20" />
            </Array>
          </mxGeometry>
        </mxCell>
        <mxCell id="HUSUJuAqTIokaHn7cn6M-27" value="" style="endArrow=open;html=1;edgeStyle=orthogonalEdgeStyle;rounded=0;endFill=0;startSize=6;endSize=2;strokeColor=#FFFFFF;fontFamily=Manrope;fontSource=https%3A%2F%2Ffonts.googleapis.com%2Fcss%3Ffamily%3DManrope;" parent="HUSUJuAqTIokaHn7cn6M-22" edge="1">
          <mxGeometry width="83.33333333333334" height="83.33333333333334" as="geometry">
            <mxPoint x="45" y="31.666666666666668" as="sourcePoint" />
            <mxPoint x="30" y="45" as="targetPoint" />
            <Array as="points">
              <mxPoint x="30" y="31.666666666666668" />
            </Array>
          </mxGeometry>
        </mxCell>
        <mxCell id="HUSUJuAqTIokaHn7cn6M-28" value="&lt;font&gt;srl&lt;/font&gt;" style="text;html=1;align=center;verticalAlign=middle;resizable=0;points=[];autosize=1;fontSize=14;fontFamily=Manrope;fontStyle=0;fontColor=#FFFFFF;" parent="1" vertex="1">
          <mxGeometry x="605" y="383" width="30" height="25" as="geometry" />
        </mxCell>
        <mxCell id="HUSUJuAqTIokaHn7cn6M-29" value="" style="endArrow=none;html=1;shadow=0;strokeWidth=4;fillColor=#666666;fontFamily=nasa;fontSize=18;fontColor=#FFFFFF;strokeColor=#4BDD33;" parent="1" edge="1">
          <mxGeometry width="50" height="50" relative="1" as="geometry">
            <mxPoint x="599" y="293" as="sourcePoint" />
            <mxPoint x="780" y="293" as="targetPoint" />
          </mxGeometry>
        </mxCell>
        <mxCell id="HUSUJuAqTIokaHn7cn6M-30" style="edgeStyle=orthogonalEdgeStyle;rounded=0;orthogonalLoop=1;jettySize=auto;html=1;fontFamily=Manrope;fontSize=12;fontColor=#FFFFFF;endArrow=oval;endFill=1;startArrow=oval;startFill=1;strokeColor=#4BDD33;" parent="1" target="HUSUJuAqTIokaHn7cn6M-23" edge="1">
          <mxGeometry relative="1" as="geometry">
            <mxPoint x="620" y="293" as="sourcePoint" />
            <mxPoint x="619.9949999999999" y="321" as="targetPoint" />
          </mxGeometry>
        </mxCell>
        <mxCell id="HUSUJuAqTIokaHn7cn6M-31" value="&lt;font&gt;Lab logical diagram&lt;/font&gt;" style="text;html=1;align=center;verticalAlign=middle;resizable=0;points=[];autosize=1;fontSize=14;fontFamily=Manrope;fontStyle=0;fontColor=#FFFFFF;" parent="1" vertex="1">
          <mxGeometry x="605" y="491.5" width="134" height="22" as="geometry" />
        </mxCell>
        <mxCell id="HUSUJuAqTIokaHn7cn6M-32" style="rounded=0;orthogonalLoop=1;jettySize=auto;html=1;entryX=0.5;entryY=1;entryDx=0;entryDy=0;startSize=6;endArrow=none;endFill=0;endSize=2;fontFamily=Manrope;fontSize=8;dashed=1;fontSource=https%3A%2F%2Ffonts.googleapis.com%2Fcss%3Ffamily%3DManrope;strokeColor=#FFFFFF;" parent="1" edge="1">
          <mxGeometry relative="1" as="geometry">
            <mxPoint x="490" y="503" as="sourcePoint" />
            <mxPoint x="490" y="165" as="targetPoint" />
          </mxGeometry>
        </mxCell>
        <mxCell id="HUSUJuAqTIokaHn7cn6M-33" value="" style="rounded=0;whiteSpace=wrap;html=1;fontSize=12;align=center;strokeColor=none;fontFamily=Manrope;fontSource=https%3A%2F%2Ffonts.googleapis.com%2Fcss%3Ffamily%3DManrope;fontColor=#DDE9F5;fillColor=#BEC8D2;" parent="1" vertex="1">
          <mxGeometry x="270" y="365" width="163.5" height="107.5" as="geometry" />
        </mxCell>
        <mxCell id="HUSUJuAqTIokaHn7cn6M-34" value="Arista cEOS" style="rounded=0;whiteSpace=wrap;html=1;fontSize=12;align=center;strokeColor=none;fontFamily=Manrope;fontSource=https%3A%2F%2Ffonts.googleapis.com%2Fcss%3Ffamily%3DManrope;fontColor=#FFFFFF;fillColor=#124191;" parent="1" vertex="1">
          <mxGeometry x="308.5" y="400" width="120" height="37.5" as="geometry" />
        </mxCell>
        <mxCell id="HUSUJuAqTIokaHn7cn6M-35" value="mgmt" style="rounded=0;whiteSpace=wrap;html=1;fontFamily=Manrope;fontSize=12;fontColor=#FFFFFF;align=center;fillColor=#4BDD33;strokeColor=none;" parent="1" vertex="1">
          <mxGeometry x="346.75" y="385" width="43.5" height="15" as="geometry" />
        </mxCell>
        <mxCell id="HUSUJuAqTIokaHn7cn6M-36" value="veth&lt;font color=&quot;#bec8d2&quot;&gt;XXX&lt;/font&gt;" style="rounded=0;whiteSpace=wrap;html=1;fontFamily=Manrope;fontSize=12;fontColor=#FFFFFF;align=center;fillColor=#4BDD33;strokeColor=none;" parent="1" vertex="1">
          <mxGeometry x="342.13" y="307.5" width="52.75" height="17.5" as="geometry" />
        </mxCell>
        <mxCell id="HUSUJuAqTIokaHn7cn6M-37" style="edgeStyle=orthogonalEdgeStyle;rounded=0;orthogonalLoop=1;jettySize=auto;html=1;exitX=0.5;exitY=0;exitDx=0;exitDy=0;entryX=0.5;entryY=1;entryDx=0;entryDy=0;fontFamily=Manrope;fontSize=12;fontColor=#FFFFFF;endArrow=oval;endFill=1;startArrow=oval;startFill=1;strokeColor=#4BDD33;" parent="1" source="HUSUJuAqTIokaHn7cn6M-35" target="HUSUJuAqTIokaHn7cn6M-36" edge="1">
          <mxGeometry relative="1" as="geometry" />
        </mxCell>
        <mxCell id="HUSUJuAqTIokaHn7cn6M-38" value="&lt;font color=&quot;#dde9f5&quot;&gt;netns:&lt;/font&gt;&amp;nbsp;container2" style="rounded=0;whiteSpace=wrap;html=1;fontSize=12;align=center;fontFamily=Manrope;fontSource=https%3A%2F%2Ffonts.googleapis.com%2Fcss%3Ffamily%3DManrope;fontColor=#FFFFFF;fillColor=#98A2AE;rotation=0;strokeColor=none;horizontal=0;verticalAlign=middle;" parent="1" vertex="1">
          <mxGeometry x="433.5" y="365" width="26.5" height="107.5" as="geometry" />
        </mxCell>
        <mxCell id="HUSUJuAqTIokaHn7cn6M-39" value="e1-1" style="rounded=0;whiteSpace=wrap;html=1;fontFamily=Manrope;fontSize=12;fontColor=#FFFFFF;align=center;strokeColor=none;rotation=0;horizontal=1;fillColor=#001135;" parent="1" vertex="1">
          <mxGeometry x="200" y="410.62" width="30" height="16.25" as="geometry" />
        </mxCell>
        <mxCell id="HUSUJuAqTIokaHn7cn6M-40" value="eth1" style="rounded=0;whiteSpace=wrap;html=1;fontFamily=Manrope;fontSize=12;fontColor=#FFFFFF;align=center;strokeColor=none;rotation=0;horizontal=1;fillColor=#001135;" parent="1" vertex="1">
          <mxGeometry x="280" y="410.62" width="28.5" height="16.25" as="geometry" />
        </mxCell>
        <mxCell id="HUSUJuAqTIokaHn7cn6M-41" style="edgeStyle=orthogonalEdgeStyle;rounded=0;orthogonalLoop=1;jettySize=auto;html=1;exitX=1;exitY=0.5;exitDx=0;exitDy=0;entryX=0;entryY=0.5;entryDx=0;entryDy=0;fontFamily=Manrope;fontSize=12;fontColor=#FFFFFF;endArrow=oval;endFill=1;startArrow=oval;startFill=1;strokeColor=#001135;" parent="1" source="HUSUJuAqTIokaHn7cn6M-39" target="HUSUJuAqTIokaHn7cn6M-40" edge="1">
          <mxGeometry relative="1" as="geometry">
            <mxPoint x="145" y="379.99" as="sourcePoint" />
            <mxPoint x="145.0050000000001" y="324.99" as="targetPoint" />
          </mxGeometry>
        </mxCell>
        <mxCell id="HUSUJuAqTIokaHn7cn6M-42" value="" style="group" parent="1" vertex="1" connectable="0">
          <mxGeometry x="730" y="333" width="50" height="50" as="geometry" />
        </mxCell>
        <mxCell id="HUSUJuAqTIokaHn7cn6M-43" value="" style="group" parent="HUSUJuAqTIokaHn7cn6M-42" vertex="1" connectable="0">
          <mxGeometry width="50" height="50" as="geometry" />
        </mxCell>
        <mxCell id="HUSUJuAqTIokaHn7cn6M-44" value="" style="whiteSpace=wrap;html=1;aspect=fixed;fillColor=#001135;strokeColor=none;connectable=1;allowArrows=1;fontFamily=Manrope;fontSource=https%3A%2F%2Ffonts.googleapis.com%2Fcss%3Ffamily%3DManrope;" parent="HUSUJuAqTIokaHn7cn6M-43" vertex="1">
          <mxGeometry width="50" height="50" as="geometry" />
        </mxCell>
        <mxCell id="HUSUJuAqTIokaHn7cn6M-45" value="" style="endArrow=open;html=1;edgeStyle=orthogonalEdgeStyle;rounded=0;endFill=0;startSize=6;endSize=2;strokeColor=#FFFFFF;fontFamily=Manrope;fontSource=https%3A%2F%2Ffonts.googleapis.com%2Fcss%3Ffamily%3DManrope;" parent="HUSUJuAqTIokaHn7cn6M-43" edge="1">
          <mxGeometry width="83.33333333333334" height="83.33333333333334" as="geometry">
            <mxPoint x="5" y="20" as="sourcePoint" />
            <mxPoint x="18.333333333333336" y="5" as="targetPoint" />
            <Array as="points">
              <mxPoint x="18.333333333333336" y="20" />
            </Array>
          </mxGeometry>
        </mxCell>
        <mxCell id="HUSUJuAqTIokaHn7cn6M-46" value="" style="endArrow=open;html=1;edgeStyle=orthogonalEdgeStyle;rounded=0;endFill=0;startSize=6;endSize=2;strokeColor=#FFFFFF;fontFamily=Manrope;fontSource=https%3A%2F%2Ffonts.googleapis.com%2Fcss%3Ffamily%3DManrope;" parent="HUSUJuAqTIokaHn7cn6M-43" edge="1">
          <mxGeometry width="83.33333333333334" height="83.33333333333334" as="geometry">
            <mxPoint x="18.333333333333336" y="45" as="sourcePoint" />
            <mxPoint x="5" y="31.666666666666668" as="targetPoint" />
            <Array as="points">
              <mxPoint x="18.333333333333336" y="31.666666666666668" />
            </Array>
          </mxGeometry>
        </mxCell>
        <mxCell id="HUSUJuAqTIokaHn7cn6M-47" value="" style="endArrow=open;html=1;edgeStyle=orthogonalEdgeStyle;rounded=0;endFill=0;startSize=6;endSize=2;strokeColor=#FFFFFF;fontFamily=Manrope;fontSource=https%3A%2F%2Ffonts.googleapis.com%2Fcss%3Ffamily%3DManrope;" parent="HUSUJuAqTIokaHn7cn6M-43" edge="1">
          <mxGeometry width="83.33333333333334" height="83.33333333333334" as="geometry">
            <mxPoint x="30" y="5" as="sourcePoint" />
            <mxPoint x="45" y="20" as="targetPoint" />
            <Array as="points">
              <mxPoint x="30" y="20" />
            </Array>
          </mxGeometry>
        </mxCell>
        <mxCell id="HUSUJuAqTIokaHn7cn6M-48" value="" style="endArrow=open;html=1;edgeStyle=orthogonalEdgeStyle;rounded=0;endFill=0;startSize=6;endSize=2;strokeColor=#FFFFFF;fontFamily=Manrope;fontSource=https%3A%2F%2Ffonts.googleapis.com%2Fcss%3Ffamily%3DManrope;" parent="HUSUJuAqTIokaHn7cn6M-43" edge="1">
          <mxGeometry width="83.33333333333334" height="83.33333333333334" as="geometry">
            <mxPoint x="45" y="31.666666666666668" as="sourcePoint" />
            <mxPoint x="30" y="45" as="targetPoint" />
            <Array as="points">
              <mxPoint x="30" y="31.666666666666668" />
            </Array>
          </mxGeometry>
        </mxCell>
        <mxCell id="HUSUJuAqTIokaHn7cn6M-49" value="&lt;font&gt;ceos&lt;/font&gt;" style="text;html=1;align=center;verticalAlign=middle;resizable=0;points=[];autosize=1;fontSize=14;fontFamily=Manrope;fontStyle=0;fontColor=#FFFFFF;" parent="1" vertex="1">
          <mxGeometry x="732.5" y="383" width="45" height="25" as="geometry" />
        </mxCell>
        <mxCell id="HUSUJuAqTIokaHn7cn6M-50" style="edgeStyle=orthogonalEdgeStyle;rounded=0;orthogonalLoop=1;jettySize=auto;html=1;fontFamily=Manrope;fontSize=12;fontColor=#FFFFFF;endArrow=oval;endFill=1;startArrow=oval;startFill=1;strokeColor=#4BDD33;" parent="1" edge="1">
          <mxGeometry relative="1" as="geometry">
            <mxPoint x="754.7600000000002" y="293" as="sourcePoint" />
            <mxPoint x="754.7600000000002" y="333" as="targetPoint" />
          </mxGeometry>
        </mxCell>
        <mxCell id="HUSUJuAqTIokaHn7cn6M-51" style="edgeStyle=orthogonalEdgeStyle;rounded=0;orthogonalLoop=1;jettySize=auto;html=1;fontFamily=Manrope;fontSize=12;fontColor=#FFFFFF;endArrow=oval;endFill=1;startArrow=oval;startFill=1;entryX=1;entryY=0.5;entryDx=0;entryDy=0;exitX=0;exitY=0.5;exitDx=0;exitDy=0;strokeColor=#98A2AE;" parent="1" source="HUSUJuAqTIokaHn7cn6M-53" target="HUSUJuAqTIokaHn7cn6M-52" edge="1">
          <mxGeometry relative="1" as="geometry">
            <mxPoint x="625" y="298" as="sourcePoint" />
            <mxPoint x="625" y="338" as="targetPoint" />
          </mxGeometry>
        </mxCell>
        <mxCell id="HUSUJuAqTIokaHn7cn6M-52" value="e1-1" style="rounded=0;whiteSpace=wrap;html=1;fontFamily=Manrope;fontSize=12;fontColor=#FFFFFF;align=center;strokeColor=none;rotation=0;horizontal=1;fillColor=#98A2AE;" parent="1" vertex="1">
          <mxGeometry x="645" y="349.87" width="30" height="16.25" as="geometry" />
        </mxCell>
        <mxCell id="HUSUJuAqTIokaHn7cn6M-53" value="eth1" style="rounded=0;whiteSpace=wrap;html=1;fontFamily=Manrope;fontSize=12;fontColor=#FFFFFF;align=center;strokeColor=none;rotation=0;horizontal=1;fillColor=#98A2AE;" parent="1" vertex="1">
          <mxGeometry x="700" y="349.38" width="30" height="16.25" as="geometry" />
        </mxCell>
        <mxCell id="HUSUJuAqTIokaHn7cn6M-54" value="&lt;font style=&quot;font-size: 12px&quot;&gt;&lt;font color=&quot;#ffffff&quot;&gt;docker network:&lt;/font&gt;&lt;br&gt;&lt;/font&gt;&lt;span style=&quot;font-size: 12px&quot;&gt;&lt;font color=&quot;#bec8d2&quot;&gt;clab&lt;/font&gt;&lt;/span&gt;" style="text;html=1;align=right;verticalAlign=middle;resizable=0;points=[];autosize=1;fontSize=10;fontFamily=Manrope;fontColor=#001135;" parent="1" vertex="1">
          <mxGeometry x="495" y="277.5" width="100" height="30" as="geometry" />
        </mxCell>
      </root>
    </mxGraphModel>
  </diagram>
  <diagram name="[1] bgp" id="VE4x6YazyZ2CrUnz0_BO">
    <mxGraphModel dx="2052" dy="1149" grid="1" gridSize="1" guides="1" tooltips="1" connect="1" arrows="1" fold="1" page="1" pageScale="1" pageWidth="827" pageHeight="1169" background="#4D5766" math="0" shadow="0">
      <root>
        <mxCell id="YSi4LTzmmD1kewjckfzm-0" />
        <mxCell id="YSi4LTzmmD1kewjckfzm-1" parent="YSi4LTzmmD1kewjckfzm-0" />
        <mxCell id="_ZjZlvdOe3W0lZG1KsHF-0" value="" style="rounded=0;whiteSpace=wrap;html=1;fontSize=12;align=center;strokeColor=none;fontFamily=Manrope;fontSource=https%3A%2F%2Ffonts.googleapis.com%2Fcss%3Ffamily%3DManrope;fontColor=#DDE9F5;fillColor=#BEC8D2;" parent="YSi4LTzmmD1kewjckfzm-1" vertex="1">
          <mxGeometry x="208" y="314" width="405" height="107.5" as="geometry" />
        </mxCell>
        <mxCell id="YSi4LTzmmD1kewjckfzm-22" value="" style="group" parent="YSi4LTzmmD1kewjckfzm-1" vertex="1" connectable="0">
          <mxGeometry x="222" y="338.5" width="50" height="50" as="geometry" />
        </mxCell>
        <mxCell id="YSi4LTzmmD1kewjckfzm-23" value="" style="group" parent="YSi4LTzmmD1kewjckfzm-22" vertex="1" connectable="0">
          <mxGeometry width="50" height="50" as="geometry" />
        </mxCell>
        <mxCell id="YSi4LTzmmD1kewjckfzm-24" value="" style="whiteSpace=wrap;html=1;aspect=fixed;fillColor=#001135;strokeColor=none;connectable=1;allowArrows=1;fontFamily=Manrope;fontSource=https%3A%2F%2Ffonts.googleapis.com%2Fcss%3Ffamily%3DManrope;" parent="YSi4LTzmmD1kewjckfzm-23" vertex="1">
          <mxGeometry width="50" height="50" as="geometry" />
        </mxCell>
        <mxCell id="YSi4LTzmmD1kewjckfzm-25" value="" style="endArrow=open;html=1;edgeStyle=orthogonalEdgeStyle;rounded=0;endFill=0;startSize=6;endSize=2;strokeColor=#FFFFFF;fontFamily=Manrope;fontSource=https%3A%2F%2Ffonts.googleapis.com%2Fcss%3Ffamily%3DManrope;" parent="YSi4LTzmmD1kewjckfzm-23" edge="1">
          <mxGeometry width="83.33333333333334" height="83.33333333333334" as="geometry">
            <mxPoint x="5" y="20" as="sourcePoint" />
            <mxPoint x="18.333333333333336" y="5" as="targetPoint" />
            <Array as="points">
              <mxPoint x="18.333333333333336" y="20" />
            </Array>
          </mxGeometry>
        </mxCell>
        <mxCell id="YSi4LTzmmD1kewjckfzm-26" value="" style="endArrow=open;html=1;edgeStyle=orthogonalEdgeStyle;rounded=0;endFill=0;startSize=6;endSize=2;strokeColor=#FFFFFF;fontFamily=Manrope;fontSource=https%3A%2F%2Ffonts.googleapis.com%2Fcss%3Ffamily%3DManrope;" parent="YSi4LTzmmD1kewjckfzm-23" edge="1">
          <mxGeometry width="83.33333333333334" height="83.33333333333334" as="geometry">
            <mxPoint x="18.333333333333336" y="45" as="sourcePoint" />
            <mxPoint x="5" y="31.666666666666668" as="targetPoint" />
            <Array as="points">
              <mxPoint x="18.333333333333336" y="31.666666666666668" />
            </Array>
          </mxGeometry>
        </mxCell>
        <mxCell id="YSi4LTzmmD1kewjckfzm-27" value="" style="endArrow=open;html=1;edgeStyle=orthogonalEdgeStyle;rounded=0;endFill=0;startSize=6;endSize=2;strokeColor=#FFFFFF;fontFamily=Manrope;fontSource=https%3A%2F%2Ffonts.googleapis.com%2Fcss%3Ffamily%3DManrope;" parent="YSi4LTzmmD1kewjckfzm-23" edge="1">
          <mxGeometry width="83.33333333333334" height="83.33333333333334" as="geometry">
            <mxPoint x="30" y="5" as="sourcePoint" />
            <mxPoint x="45" y="20" as="targetPoint" />
            <Array as="points">
              <mxPoint x="30" y="20" />
            </Array>
          </mxGeometry>
        </mxCell>
        <mxCell id="YSi4LTzmmD1kewjckfzm-28" value="" style="endArrow=open;html=1;edgeStyle=orthogonalEdgeStyle;rounded=0;endFill=0;startSize=6;endSize=2;strokeColor=#FFFFFF;fontFamily=Manrope;fontSource=https%3A%2F%2Ffonts.googleapis.com%2Fcss%3Ffamily%3DManrope;" parent="YSi4LTzmmD1kewjckfzm-23" edge="1">
          <mxGeometry width="83.33333333333334" height="83.33333333333334" as="geometry">
            <mxPoint x="45" y="31.666666666666668" as="sourcePoint" />
            <mxPoint x="30" y="45" as="targetPoint" />
            <Array as="points">
              <mxPoint x="30" y="31.666666666666668" />
            </Array>
          </mxGeometry>
        </mxCell>
        <mxCell id="YSi4LTzmmD1kewjckfzm-29" value="&lt;font&gt;srl&lt;/font&gt;" style="text;html=1;align=center;verticalAlign=middle;resizable=0;points=[];autosize=1;fontSize=14;fontFamily=Manrope;fontStyle=0;fontColor=#FFFFFF;" parent="YSi4LTzmmD1kewjckfzm-1" vertex="1">
          <mxGeometry x="232" y="388.5" width="30" height="25" as="geometry" />
        </mxCell>
        <mxCell id="YSi4LTzmmD1kewjckfzm-31" style="edgeStyle=orthogonalEdgeStyle;rounded=0;orthogonalLoop=1;jettySize=auto;html=1;fontFamily=Manrope;fontSize=12;fontColor=#FFFFFF;endArrow=oval;endFill=1;startArrow=oval;startFill=1;strokeColor=#00C9FF;" parent="YSi4LTzmmD1kewjckfzm-1" target="YSi4LTzmmD1kewjckfzm-24" edge="1">
          <mxGeometry relative="1" as="geometry">
            <mxPoint x="247" y="298.5" as="sourcePoint" />
            <mxPoint x="246.9949999999999" y="326.5" as="targetPoint" />
          </mxGeometry>
        </mxCell>
        <mxCell id="YSi4LTzmmD1kewjckfzm-43" value="" style="group" parent="YSi4LTzmmD1kewjckfzm-1" vertex="1" connectable="0">
          <mxGeometry x="535" y="338.5" width="50" height="50" as="geometry" />
        </mxCell>
        <mxCell id="YSi4LTzmmD1kewjckfzm-44" value="" style="group" parent="YSi4LTzmmD1kewjckfzm-43" vertex="1" connectable="0">
          <mxGeometry width="50" height="50" as="geometry" />
        </mxCell>
        <mxCell id="YSi4LTzmmD1kewjckfzm-45" value="" style="whiteSpace=wrap;html=1;aspect=fixed;fillColor=#001135;strokeColor=none;connectable=1;allowArrows=1;fontFamily=Manrope;fontSource=https%3A%2F%2Ffonts.googleapis.com%2Fcss%3Ffamily%3DManrope;" parent="YSi4LTzmmD1kewjckfzm-44" vertex="1">
          <mxGeometry width="50" height="50" as="geometry" />
        </mxCell>
        <mxCell id="YSi4LTzmmD1kewjckfzm-46" value="" style="endArrow=open;html=1;edgeStyle=orthogonalEdgeStyle;rounded=0;endFill=0;startSize=6;endSize=2;strokeColor=#FFFFFF;fontFamily=Manrope;fontSource=https%3A%2F%2Ffonts.googleapis.com%2Fcss%3Ffamily%3DManrope;" parent="YSi4LTzmmD1kewjckfzm-44" edge="1">
          <mxGeometry width="83.33333333333334" height="83.33333333333334" as="geometry">
            <mxPoint x="5" y="20" as="sourcePoint" />
            <mxPoint x="18.333333333333336" y="5" as="targetPoint" />
            <Array as="points">
              <mxPoint x="18.333333333333336" y="20" />
            </Array>
          </mxGeometry>
        </mxCell>
        <mxCell id="YSi4LTzmmD1kewjckfzm-47" value="" style="endArrow=open;html=1;edgeStyle=orthogonalEdgeStyle;rounded=0;endFill=0;startSize=6;endSize=2;strokeColor=#FFFFFF;fontFamily=Manrope;fontSource=https%3A%2F%2Ffonts.googleapis.com%2Fcss%3Ffamily%3DManrope;" parent="YSi4LTzmmD1kewjckfzm-44" edge="1">
          <mxGeometry width="83.33333333333334" height="83.33333333333334" as="geometry">
            <mxPoint x="18.333333333333336" y="45" as="sourcePoint" />
            <mxPoint x="5" y="31.666666666666668" as="targetPoint" />
            <Array as="points">
              <mxPoint x="18.333333333333336" y="31.666666666666668" />
            </Array>
          </mxGeometry>
        </mxCell>
        <mxCell id="YSi4LTzmmD1kewjckfzm-48" value="" style="endArrow=open;html=1;edgeStyle=orthogonalEdgeStyle;rounded=0;endFill=0;startSize=6;endSize=2;strokeColor=#FFFFFF;fontFamily=Manrope;fontSource=https%3A%2F%2Ffonts.googleapis.com%2Fcss%3Ffamily%3DManrope;" parent="YSi4LTzmmD1kewjckfzm-44" edge="1">
          <mxGeometry width="83.33333333333334" height="83.33333333333334" as="geometry">
            <mxPoint x="30" y="5" as="sourcePoint" />
            <mxPoint x="45" y="20" as="targetPoint" />
            <Array as="points">
              <mxPoint x="30" y="20" />
            </Array>
          </mxGeometry>
        </mxCell>
        <mxCell id="YSi4LTzmmD1kewjckfzm-49" value="" style="endArrow=open;html=1;edgeStyle=orthogonalEdgeStyle;rounded=0;endFill=0;startSize=6;endSize=2;strokeColor=#FFFFFF;fontFamily=Manrope;fontSource=https%3A%2F%2Ffonts.googleapis.com%2Fcss%3Ffamily%3DManrope;" parent="YSi4LTzmmD1kewjckfzm-44" edge="1">
          <mxGeometry width="83.33333333333334" height="83.33333333333334" as="geometry">
            <mxPoint x="45" y="31.666666666666668" as="sourcePoint" />
            <mxPoint x="30" y="45" as="targetPoint" />
            <Array as="points">
              <mxPoint x="30" y="31.666666666666668" />
            </Array>
          </mxGeometry>
        </mxCell>
        <mxCell id="YSi4LTzmmD1kewjckfzm-50" value="&lt;font&gt;ceos&lt;/font&gt;" style="text;html=1;align=center;verticalAlign=middle;resizable=0;points=[];autosize=1;fontSize=14;fontFamily=Manrope;fontStyle=0;fontColor=#FFFFFF;" parent="YSi4LTzmmD1kewjckfzm-1" vertex="1">
          <mxGeometry x="539.5" y="390.5" width="42" height="22" as="geometry" />
        </mxCell>
        <mxCell id="YSi4LTzmmD1kewjckfzm-51" style="edgeStyle=orthogonalEdgeStyle;rounded=0;orthogonalLoop=1;jettySize=auto;html=1;fontFamily=Manrope;fontSize=12;fontColor=#FFFFFF;endArrow=oval;endFill=1;startArrow=oval;startFill=1;strokeColor=#00C9FF;" parent="YSi4LTzmmD1kewjckfzm-1" edge="1">
          <mxGeometry relative="1" as="geometry">
            <mxPoint x="559.7600000000002" y="298.5" as="sourcePoint" />
            <mxPoint x="559.7600000000002" y="338.5" as="targetPoint" />
          </mxGeometry>
        </mxCell>
        <mxCell id="YSi4LTzmmD1kewjckfzm-52" style="edgeStyle=orthogonalEdgeStyle;rounded=0;orthogonalLoop=1;jettySize=auto;html=1;fontFamily=Manrope;fontSize=12;fontColor=#FFFFFF;endArrow=oval;endFill=1;startArrow=oval;startFill=1;entryX=1;entryY=0.5;entryDx=0;entryDy=0;exitX=0;exitY=0.5;exitDx=0;exitDy=0;strokeColor=#98A2AE;" parent="YSi4LTzmmD1kewjckfzm-1" source="YSi4LTzmmD1kewjckfzm-54" target="YSi4LTzmmD1kewjckfzm-53" edge="1">
          <mxGeometry relative="1" as="geometry">
            <mxPoint x="376" y="303.5" as="sourcePoint" />
            <mxPoint x="376" y="343.5" as="targetPoint" />
          </mxGeometry>
        </mxCell>
        <mxCell id="YSi4LTzmmD1kewjckfzm-53" value="e-1/1" style="rounded=0;whiteSpace=wrap;html=1;fontFamily=Manrope;fontSize=12;fontColor=#FFFFFF;align=center;strokeColor=none;rotation=0;horizontal=1;fillColor=#98A2AE;" parent="YSi4LTzmmD1kewjckfzm-1" vertex="1">
          <mxGeometry x="272" y="355.37" width="30" height="16.25" as="geometry" />
        </mxCell>
        <mxCell id="YSi4LTzmmD1kewjckfzm-54" value="eth1" style="rounded=0;whiteSpace=wrap;html=1;fontFamily=Manrope;fontSize=12;fontColor=#FFFFFF;align=center;strokeColor=none;rotation=0;horizontal=1;fillColor=#98A2AE;" parent="YSi4LTzmmD1kewjckfzm-1" vertex="1">
          <mxGeometry x="505" y="354.88" width="30" height="16.25" as="geometry" />
        </mxCell>
        <mxCell id="_ZjZlvdOe3W0lZG1KsHF-1" value="&lt;b&gt;AS: 65001&lt;/b&gt;" style="text;html=1;align=center;verticalAlign=middle;resizable=0;points=[];autosize=1;fontSize=14;fontFamily=Manrope;fontStyle=0;fontColor=#FFFFFF;" parent="YSi4LTzmmD1kewjckfzm-1" vertex="1">
          <mxGeometry x="376" y="390.5" width="75" height="22" as="geometry" />
        </mxCell>
        <mxCell id="_ZjZlvdOe3W0lZG1KsHF-2" value="&lt;div style=&quot;font-size: 10px;&quot;&gt;&lt;span style=&quot;color: rgb(255, 255, 255); font-size: 10px;&quot;&gt;192.168.1.0/24&lt;/span&gt;&lt;/div&gt;&lt;div style=&quot;font-size: 10px;&quot;&gt;&lt;br style=&quot;font-size: 10px;&quot;&gt;&lt;/div&gt;" style="text;html=1;align=center;verticalAlign=middle;resizable=0;points=[];autosize=1;fontSize=10;fontFamily=Fira Code;fontColor=#001135;fontSource=https%3A%2F%2Ffonts.googleapis.com%2Fcss%3Ffamily%3DFira%2BCode;connectable=0;rotation=0;opacity=60;" parent="YSi4LTzmmD1kewjckfzm-1" vertex="1">
          <mxGeometry x="358" y="347.62" width="95" height="29" as="geometry" />
        </mxCell>
        <mxCell id="_ZjZlvdOe3W0lZG1KsHF-3" value="&lt;div style=&quot;font-size: 8px&quot;&gt;&lt;span style=&quot;color: rgb(255 , 255 , 255) ; font-size: 8px&quot;&gt;.1&lt;/span&gt;&lt;/div&gt;&lt;div style=&quot;font-size: 8px&quot;&gt;&lt;br style=&quot;font-size: 8px&quot;&gt;&lt;/div&gt;" style="text;html=1;align=center;verticalAlign=middle;resizable=0;points=[];autosize=1;fontSize=8;fontFamily=Fira Code;fontColor=#001135;fontSource=https%3A%2F%2Ffonts.googleapis.com%2Fcss%3Ffamily%3DFira%2BCode;connectable=0;rotation=0;opacity=60;" parent="YSi4LTzmmD1kewjckfzm-1" vertex="1">
          <mxGeometry x="300" y="348" width="21" height="25" as="geometry" />
        </mxCell>
        <mxCell id="_ZjZlvdOe3W0lZG1KsHF-4" value="&lt;div style=&quot;font-size: 8px&quot;&gt;&lt;span style=&quot;color: rgb(255 , 255 , 255) ; font-size: 8px&quot;&gt;.2&lt;/span&gt;&lt;/div&gt;&lt;div style=&quot;font-size: 8px&quot;&gt;&lt;br style=&quot;font-size: 8px&quot;&gt;&lt;/div&gt;" style="text;html=1;align=center;verticalAlign=middle;resizable=0;points=[];autosize=1;fontSize=8;fontFamily=Fira Code;fontColor=#001135;fontSource=https%3A%2F%2Ffonts.googleapis.com%2Fcss%3Ffamily%3DFira%2BCode;connectable=0;rotation=0;opacity=60;" parent="YSi4LTzmmD1kewjckfzm-1" vertex="1">
          <mxGeometry x="483" y="348" width="21" height="25" as="geometry" />
        </mxCell>
        <mxCell id="_ZjZlvdOe3W0lZG1KsHF-5" value="&lt;div style=&quot;font-size: 10px&quot;&gt;&lt;font color=&quot;#ffffff&quot;&gt;lo0.0: 10.10.10.1&lt;/font&gt;&lt;/div&gt;" style="text;html=1;align=center;verticalAlign=middle;resizable=0;points=[];autosize=1;fontSize=10;fontFamily=Fira Code;fontColor=#001135;fontSource=https%3A%2F%2Ffonts.googleapis.com%2Fcss%3Ffamily%3DFira%2BCode;connectable=0;rotation=0;opacity=60;" parent="YSi4LTzmmD1kewjckfzm-1" vertex="1">
          <mxGeometry x="192" y="279" width="113" height="17" as="geometry" />
        </mxCell>
        <mxCell id="_ZjZlvdOe3W0lZG1KsHF-6" value="&lt;div style=&quot;font-size: 10px&quot;&gt;&lt;font color=&quot;#ffffff&quot;&gt;lo0.0: 10.10.10.2&lt;/font&gt;&lt;/div&gt;" style="text;html=1;align=center;verticalAlign=middle;resizable=0;points=[];autosize=1;fontSize=10;fontFamily=Fira Code;fontColor=#001135;fontSource=https%3A%2F%2Ffonts.googleapis.com%2Fcss%3Ffamily%3DFira%2BCode;connectable=0;rotation=0;opacity=60;" parent="YSi4LTzmmD1kewjckfzm-1" vertex="1">
          <mxGeometry x="503.5" y="279" width="113" height="17" as="geometry" />
        </mxCell>
      </root>
    </mxGraphModel>
  </diagram>
  <diagram name="[2] logical" id="Pzg-z0HY_afTSoImNTcx">
    <mxGraphModel dx="977" dy="520" grid="1" gridSize="1" guides="1" tooltips="1" connect="1" arrows="1" fold="1" page="1" pageScale="1" pageWidth="827" pageHeight="1169" background="#4D5766" math="0" shadow="0">
      <root>
        <mxCell id="eQHKXC15OJFKic_N2L2--0" />
        <mxCell id="eQHKXC15OJFKic_N2L2--1" parent="eQHKXC15OJFKic_N2L2--0" />
        <mxCell id="eQHKXC15OJFKic_N2L2--22" value="" style="group" parent="eQHKXC15OJFKic_N2L2--1" vertex="1" connectable="0">
          <mxGeometry x="345" y="333" width="50" height="50" as="geometry" />
        </mxCell>
        <mxCell id="eQHKXC15OJFKic_N2L2--23" value="" style="group" parent="eQHKXC15OJFKic_N2L2--22" vertex="1" connectable="0">
          <mxGeometry width="50" height="50" as="geometry" />
        </mxCell>
        <mxCell id="eQHKXC15OJFKic_N2L2--24" value="" style="whiteSpace=wrap;html=1;aspect=fixed;fillColor=#001135;strokeColor=none;connectable=1;allowArrows=1;fontFamily=Manrope;fontSource=https%3A%2F%2Ffonts.googleapis.com%2Fcss%3Ffamily%3DManrope;" parent="eQHKXC15OJFKic_N2L2--23" vertex="1">
          <mxGeometry width="50" height="50" as="geometry" />
        </mxCell>
        <mxCell id="eQHKXC15OJFKic_N2L2--25" value="" style="endArrow=open;html=1;edgeStyle=orthogonalEdgeStyle;rounded=0;endFill=0;startSize=6;endSize=2;strokeColor=#FFFFFF;fontFamily=Manrope;fontSource=https%3A%2F%2Ffonts.googleapis.com%2Fcss%3Ffamily%3DManrope;" parent="eQHKXC15OJFKic_N2L2--23" edge="1">
          <mxGeometry width="83.33333333333334" height="83.33333333333334" as="geometry">
            <mxPoint x="5" y="20" as="sourcePoint" />
            <mxPoint x="18.333333333333336" y="5" as="targetPoint" />
            <Array as="points">
              <mxPoint x="18.333333333333336" y="20" />
            </Array>
          </mxGeometry>
        </mxCell>
        <mxCell id="eQHKXC15OJFKic_N2L2--26" value="" style="endArrow=open;html=1;edgeStyle=orthogonalEdgeStyle;rounded=0;endFill=0;startSize=6;endSize=2;strokeColor=#FFFFFF;fontFamily=Manrope;fontSource=https%3A%2F%2Ffonts.googleapis.com%2Fcss%3Ffamily%3DManrope;" parent="eQHKXC15OJFKic_N2L2--23" edge="1">
          <mxGeometry width="83.33333333333334" height="83.33333333333334" as="geometry">
            <mxPoint x="18.333333333333336" y="45" as="sourcePoint" />
            <mxPoint x="5" y="31.666666666666668" as="targetPoint" />
            <Array as="points">
              <mxPoint x="18.333333333333336" y="31.666666666666668" />
            </Array>
          </mxGeometry>
        </mxCell>
        <mxCell id="eQHKXC15OJFKic_N2L2--27" value="" style="endArrow=open;html=1;edgeStyle=orthogonalEdgeStyle;rounded=0;endFill=0;startSize=6;endSize=2;strokeColor=#FFFFFF;fontFamily=Manrope;fontSource=https%3A%2F%2Ffonts.googleapis.com%2Fcss%3Ffamily%3DManrope;" parent="eQHKXC15OJFKic_N2L2--23" edge="1">
          <mxGeometry width="83.33333333333334" height="83.33333333333334" as="geometry">
            <mxPoint x="30" y="5" as="sourcePoint" />
            <mxPoint x="45" y="20" as="targetPoint" />
            <Array as="points">
              <mxPoint x="30" y="20" />
            </Array>
          </mxGeometry>
        </mxCell>
        <mxCell id="eQHKXC15OJFKic_N2L2--28" value="" style="endArrow=open;html=1;edgeStyle=orthogonalEdgeStyle;rounded=0;endFill=0;startSize=6;endSize=2;strokeColor=#FFFFFF;fontFamily=Manrope;fontSource=https%3A%2F%2Ffonts.googleapis.com%2Fcss%3Ffamily%3DManrope;" parent="eQHKXC15OJFKic_N2L2--23" edge="1">
          <mxGeometry width="83.33333333333334" height="83.33333333333334" as="geometry">
            <mxPoint x="45" y="31.666666666666668" as="sourcePoint" />
            <mxPoint x="30" y="45" as="targetPoint" />
            <Array as="points">
              <mxPoint x="30" y="31.666666666666668" />
            </Array>
          </mxGeometry>
        </mxCell>
        <mxCell id="eQHKXC15OJFKic_N2L2--29" value="&lt;font&gt;srl&lt;/font&gt;" style="text;html=1;align=center;verticalAlign=middle;resizable=0;points=[];autosize=1;fontSize=14;fontFamily=Manrope;fontStyle=0;fontColor=#FFFFFF;" parent="eQHKXC15OJFKic_N2L2--1" vertex="1">
          <mxGeometry x="355" y="383" width="30" height="25" as="geometry" />
        </mxCell>
        <mxCell id="eQHKXC15OJFKic_N2L2--30" value="" style="endArrow=none;html=1;shadow=0;strokeWidth=4;fillColor=#666666;fontFamily=nasa;fontSize=18;fontColor=#FFFFFF;strokeColor=#4BDD33;" parent="eQHKXC15OJFKic_N2L2--1" edge="1">
          <mxGeometry width="50" height="50" relative="1" as="geometry">
            <mxPoint x="349" y="293" as="sourcePoint" />
            <mxPoint x="530" y="293" as="targetPoint" />
          </mxGeometry>
        </mxCell>
        <mxCell id="eQHKXC15OJFKic_N2L2--31" style="edgeStyle=orthogonalEdgeStyle;rounded=0;orthogonalLoop=1;jettySize=auto;html=1;fontFamily=Manrope;fontSize=12;fontColor=#FFFFFF;endArrow=oval;endFill=1;startArrow=oval;startFill=1;strokeColor=#4BDD33;" parent="eQHKXC15OJFKic_N2L2--1" target="eQHKXC15OJFKic_N2L2--24" edge="1">
          <mxGeometry relative="1" as="geometry">
            <mxPoint x="370" y="293" as="sourcePoint" />
            <mxPoint x="369.9949999999999" y="321" as="targetPoint" />
          </mxGeometry>
        </mxCell>
        <mxCell id="eQHKXC15OJFKic_N2L2--32" value="&lt;font&gt;Lab logical diagram&lt;/font&gt;" style="text;html=1;align=center;verticalAlign=middle;resizable=0;points=[];autosize=1;fontSize=14;fontFamily=Manrope;fontStyle=0;fontColor=#FFFFFF;" parent="eQHKXC15OJFKic_N2L2--1" vertex="1">
          <mxGeometry x="368" y="449" width="134" height="22" as="geometry" />
        </mxCell>
        <mxCell id="eQHKXC15OJFKic_N2L2--43" value="" style="group" parent="eQHKXC15OJFKic_N2L2--1" vertex="1" connectable="0">
          <mxGeometry x="480" y="333" width="50" height="50" as="geometry" />
        </mxCell>
        <mxCell id="eQHKXC15OJFKic_N2L2--44" value="" style="group" parent="eQHKXC15OJFKic_N2L2--43" vertex="1" connectable="0">
          <mxGeometry width="50" height="50" as="geometry" />
        </mxCell>
        <mxCell id="eQHKXC15OJFKic_N2L2--45" value="" style="whiteSpace=wrap;html=1;aspect=fixed;fillColor=#001135;strokeColor=none;connectable=1;allowArrows=1;fontFamily=Manrope;fontSource=https%3A%2F%2Ffonts.googleapis.com%2Fcss%3Ffamily%3DManrope;" parent="eQHKXC15OJFKic_N2L2--44" vertex="1">
          <mxGeometry width="50" height="50" as="geometry" />
        </mxCell>
        <mxCell id="eQHKXC15OJFKic_N2L2--46" value="" style="endArrow=open;html=1;edgeStyle=orthogonalEdgeStyle;rounded=0;endFill=0;startSize=6;endSize=2;strokeColor=#FFFFFF;fontFamily=Manrope;fontSource=https%3A%2F%2Ffonts.googleapis.com%2Fcss%3Ffamily%3DManrope;" parent="eQHKXC15OJFKic_N2L2--44" edge="1">
          <mxGeometry width="83.33333333333334" height="83.33333333333334" as="geometry">
            <mxPoint x="5" y="20" as="sourcePoint" />
            <mxPoint x="18.333333333333336" y="5" as="targetPoint" />
            <Array as="points">
              <mxPoint x="18.333333333333336" y="20" />
            </Array>
          </mxGeometry>
        </mxCell>
        <mxCell id="eQHKXC15OJFKic_N2L2--47" value="" style="endArrow=open;html=1;edgeStyle=orthogonalEdgeStyle;rounded=0;endFill=0;startSize=6;endSize=2;strokeColor=#FFFFFF;fontFamily=Manrope;fontSource=https%3A%2F%2Ffonts.googleapis.com%2Fcss%3Ffamily%3DManrope;" parent="eQHKXC15OJFKic_N2L2--44" edge="1">
          <mxGeometry width="83.33333333333334" height="83.33333333333334" as="geometry">
            <mxPoint x="18.333333333333336" y="45" as="sourcePoint" />
            <mxPoint x="5" y="31.666666666666668" as="targetPoint" />
            <Array as="points">
              <mxPoint x="18.333333333333336" y="31.666666666666668" />
            </Array>
          </mxGeometry>
        </mxCell>
        <mxCell id="eQHKXC15OJFKic_N2L2--48" value="" style="endArrow=open;html=1;edgeStyle=orthogonalEdgeStyle;rounded=0;endFill=0;startSize=6;endSize=2;strokeColor=#FFFFFF;fontFamily=Manrope;fontSource=https%3A%2F%2Ffonts.googleapis.com%2Fcss%3Ffamily%3DManrope;" parent="eQHKXC15OJFKic_N2L2--44" edge="1">
          <mxGeometry width="83.33333333333334" height="83.33333333333334" as="geometry">
            <mxPoint x="30" y="5" as="sourcePoint" />
            <mxPoint x="45" y="20" as="targetPoint" />
            <Array as="points">
              <mxPoint x="30" y="20" />
            </Array>
          </mxGeometry>
        </mxCell>
        <mxCell id="eQHKXC15OJFKic_N2L2--49" value="" style="endArrow=open;html=1;edgeStyle=orthogonalEdgeStyle;rounded=0;endFill=0;startSize=6;endSize=2;strokeColor=#FFFFFF;fontFamily=Manrope;fontSource=https%3A%2F%2Ffonts.googleapis.com%2Fcss%3Ffamily%3DManrope;" parent="eQHKXC15OJFKic_N2L2--44" edge="1">
          <mxGeometry width="83.33333333333334" height="83.33333333333334" as="geometry">
            <mxPoint x="45" y="31.666666666666668" as="sourcePoint" />
            <mxPoint x="30" y="45" as="targetPoint" />
            <Array as="points">
              <mxPoint x="30" y="31.666666666666668" />
            </Array>
          </mxGeometry>
        </mxCell>
        <mxCell id="eQHKXC15OJFKic_N2L2--50" value="&lt;font&gt;ceos&lt;/font&gt;" style="text;html=1;align=center;verticalAlign=middle;resizable=0;points=[];autosize=1;fontSize=14;fontFamily=Manrope;fontStyle=0;fontColor=#FFFFFF;" parent="eQHKXC15OJFKic_N2L2--1" vertex="1">
          <mxGeometry x="482.5" y="383" width="45" height="25" as="geometry" />
        </mxCell>
        <mxCell id="eQHKXC15OJFKic_N2L2--51" style="edgeStyle=orthogonalEdgeStyle;rounded=0;orthogonalLoop=1;jettySize=auto;html=1;fontFamily=Manrope;fontSize=12;fontColor=#FFFFFF;endArrow=oval;endFill=1;startArrow=oval;startFill=1;strokeColor=#4BDD33;" parent="eQHKXC15OJFKic_N2L2--1" edge="1">
          <mxGeometry relative="1" as="geometry">
            <mxPoint x="504.7600000000002" y="293" as="sourcePoint" />
            <mxPoint x="504.7600000000002" y="333" as="targetPoint" />
          </mxGeometry>
        </mxCell>
        <mxCell id="eQHKXC15OJFKic_N2L2--52" style="edgeStyle=orthogonalEdgeStyle;rounded=0;orthogonalLoop=1;jettySize=auto;html=1;fontFamily=Manrope;fontSize=12;fontColor=#FFFFFF;endArrow=oval;endFill=1;startArrow=oval;startFill=1;entryX=1;entryY=0.5;entryDx=0;entryDy=0;exitX=0;exitY=0.5;exitDx=0;exitDy=0;strokeColor=#98A2AE;" parent="eQHKXC15OJFKic_N2L2--1" source="eQHKXC15OJFKic_N2L2--54" target="eQHKXC15OJFKic_N2L2--53" edge="1">
          <mxGeometry relative="1" as="geometry">
            <mxPoint x="375" y="298" as="sourcePoint" />
            <mxPoint x="375" y="338" as="targetPoint" />
          </mxGeometry>
        </mxCell>
        <mxCell id="eQHKXC15OJFKic_N2L2--53" value="e1-1" style="rounded=0;whiteSpace=wrap;html=1;fontFamily=Manrope;fontSize=12;fontColor=#FFFFFF;align=center;strokeColor=none;rotation=0;horizontal=1;fillColor=#98A2AE;" parent="eQHKXC15OJFKic_N2L2--1" vertex="1">
          <mxGeometry x="395" y="349.87" width="30" height="16.25" as="geometry" />
        </mxCell>
        <mxCell id="eQHKXC15OJFKic_N2L2--54" value="eth1" style="rounded=0;whiteSpace=wrap;html=1;fontFamily=Manrope;fontSize=12;fontColor=#FFFFFF;align=center;strokeColor=none;rotation=0;horizontal=1;fillColor=#98A2AE;" parent="eQHKXC15OJFKic_N2L2--1" vertex="1">
          <mxGeometry x="450" y="349.38" width="30" height="16.25" as="geometry" />
        </mxCell>
        <mxCell id="eQHKXC15OJFKic_N2L2--55" value="&lt;font style=&quot;font-size: 12px&quot;&gt;&lt;font color=&quot;#ffffff&quot;&gt;docker network:&lt;/font&gt;&lt;br&gt;&lt;/font&gt;&lt;span style=&quot;font-size: 12px&quot;&gt;&lt;font color=&quot;#bec8d2&quot;&gt;clab&lt;/font&gt;&lt;/span&gt;" style="text;html=1;align=right;verticalAlign=middle;resizable=0;points=[];autosize=1;fontSize=10;fontFamily=Manrope;fontColor=#001135;" parent="eQHKXC15OJFKic_N2L2--1" vertex="1">
          <mxGeometry x="245" y="277.5" width="100" height="30" as="geometry" />
        </mxCell>
      </root>
    </mxGraphModel>
  </diagram>
  <diagram id="bUOH6djyesNgsT86E61M" name="Page-4">
    <mxGraphModel dx="1173" dy="624" grid="0" gridSize="10" guides="1" tooltips="1" connect="1" arrows="1" fold="1" page="1" pageScale="1" pageWidth="827" pageHeight="1169" background="#4D5766" math="0" shadow="0">
      <root>
        <mxCell id="eG74CIP6f15DdXFKIOs7-0" />
        <mxCell id="eG74CIP6f15DdXFKIOs7-1" parent="eG74CIP6f15DdXFKIOs7-0" />
        <mxCell id="eG74CIP6f15DdXFKIOs7-2" style="edgeStyle=none;rounded=0;orthogonalLoop=1;jettySize=auto;html=1;startArrow=none;startFill=0;endArrow=classicThin;endFill=1;fontFamily=Manrope;fontSize=10;fontColor=#BEC8D2;strokeWidth=2;strokeColor=#FFFFFF;" edge="1" parent="eG74CIP6f15DdXFKIOs7-1" source="eG74CIP6f15DdXFKIOs7-3">
          <mxGeometry relative="1" as="geometry">
            <mxPoint x="360" y="260" as="targetPoint" />
          </mxGeometry>
        </mxCell>
        <mxCell id="eG74CIP6f15DdXFKIOs7-3" value="" style="shape=image;verticalLabelPosition=bottom;labelBackgroundColor=#ffffff;verticalAlign=top;aspect=fixed;imageAspect=0;image=data:image/svg+xml,PHN2ZyB4bWxucz0iaHR0cDovL3d3dy53My5vcmcvMjAwMC9zdmciIHZpZXdCb3g9IjAgMCAyNCAyNCIgd2lkdGg9IjI0IiBoZWlnaHQ9IjI0Ij48cGF0aCBjbGFzcz0iY29sb3IiIGZpbGwtcnVsZT0iZXZlbm9kZCIgZD0iTTUgMi41YS41LjUgMCAwMC0uNS41djE4YS41LjUgMCAwMC41LjVoMTRhLjUuNSAwIDAwLjUtLjVWOC41aC00YTIgMiAwIDAxLTItMnYtNEg1em0xMCAwdjRhLjUuNSAwIDAwLjUuNWg0YS41LjUgMCAwMC0uMTQ2LS4zMzZsLTQuMDE4LTQuMDE4QS41LjUgMCAwMDE1IDIuNXpNMyAzYTIgMiAwIDAxMi0yaDkuOTgyYTIgMiAwIDAxMS40MTQuNTg2bDQuMDE4IDQuMDE4QTIgMiAwIDAxMjEgNy4wMThWMjFhMiAyIDAgMDEtMiAySDVhMiAyIDAgMDEtMi0yVjN6Ii8+PHN0eWxlIHR5cGU9InRleHQvY3NzIj4uY29sb3IgeyBmaWxsOiByZ2IoMTkwLCAyMDAsIDIxMCk7IH0gPC9zdHlsZT48L3N2Zz4=;editableCssRules=\.color;strokeColor=#4D5766;fontColor=#BEC8D2;" vertex="1" parent="eG74CIP6f15DdXFKIOs7-1">
          <mxGeometry x="190" y="200" width="64" height="64" as="geometry" />
        </mxCell>
        <mxCell id="eG74CIP6f15DdXFKIOs7-5" value="YAML" style="text;html=1;align=center;verticalAlign=middle;resizable=0;points=[];autosize=1;fontSize=10;fontFamily=Manrope;fontColor=#FFFFFF;" vertex="1" parent="eG74CIP6f15DdXFKIOs7-1">
          <mxGeometry x="201" y="239" width="40" height="20" as="geometry" />
        </mxCell>
        <mxCell id="eG74CIP6f15DdXFKIOs7-6" value="" style="shape=image;verticalLabelPosition=bottom;labelBackgroundColor=#ffffff;verticalAlign=top;aspect=fixed;imageAspect=0;image=data:image/svg+xml,PHN2ZyB4bWxucz0iaHR0cDovL3d3dy53My5vcmcvMjAwMC9zdmciIHZpZXdCb3g9IjAgMCAyNCAyNCIgd2lkdGg9IjI0IiBoZWlnaHQ9IjI0Ij48cGF0aCBjbGFzcz0iY29sb3IiIGZpbGwtcnVsZT0iZXZlbm9kZCIgZD0iTTUgMi41YS41LjUgMCAwMC0uNS41djE4YS41LjUgMCAwMC41LjVoMTRhLjUuNSAwIDAwLjUtLjVWOC41aC00YTIgMiAwIDAxLTItMnYtNEg1em0xMCAwdjRhLjUuNSAwIDAwLjUuNWg0YS41LjUgMCAwMC0uMTQ2LS4zMzZsLTQuMDE4LTQuMDE4QS41LjUgMCAwMDE1IDIuNXpNMyAzYTIgMiAwIDAxMi0yaDkuOTgyYTIgMiAwIDAxMS40MTQuNTg2bDQuMDE4IDQuMDE4QTIgMiAwIDAxMjEgNy4wMThWMjFhMiAyIDAgMDEtMiAySDVhMiAyIDAgMDEtMi0yVjN6Ii8+PHN0eWxlIHR5cGU9InRleHQvY3NzIj4uY29sb3IgeyBmaWxsOiByZ2IoMTkwLCAyMDAsIDIxMCk7IH0gPC9zdHlsZT48L3N2Zz4=;editableCssRules=\.color;fontColor=#FFFFFF;" vertex="1" parent="eG74CIP6f15DdXFKIOs7-1">
          <mxGeometry x="190" y="290" width="64" height="64" as="geometry" />
        </mxCell>
        <mxCell id="eG74CIP6f15DdXFKIOs7-7" value="YAML" style="text;html=1;align=center;verticalAlign=middle;resizable=0;points=[];autosize=1;fontSize=10;fontFamily=Manrope;fontColor=#FFFFFF;" vertex="1" parent="eG74CIP6f15DdXFKIOs7-1">
          <mxGeometry x="201" y="329" width="40" height="20" as="geometry" />
        </mxCell>
        <mxCell id="eG74CIP6f15DdXFKIOs7-8" style="edgeStyle=none;rounded=0;orthogonalLoop=1;jettySize=auto;html=1;startArrow=none;startFill=0;endArrow=classicThin;endFill=1;fontFamily=Manrope;fontSize=10;fontColor=#BEC8D2;strokeWidth=2;exitX=1;exitY=0.5;exitDx=0;exitDy=0;strokeColor=#FFFFFF;" edge="1" parent="eG74CIP6f15DdXFKIOs7-1" source="eG74CIP6f15DdXFKIOs7-6">
          <mxGeometry relative="1" as="geometry">
            <mxPoint x="264" y="248.51045431172463" as="sourcePoint" />
            <mxPoint x="360" y="300" as="targetPoint" />
          </mxGeometry>
        </mxCell>
        <mxCell id="eG74CIP6f15DdXFKIOs7-9" style="edgeStyle=none;rounded=0;orthogonalLoop=1;jettySize=auto;html=1;startArrow=none;startFill=0;endArrow=classicThin;endFill=1;fontFamily=Manrope;fontSize=10;fontColor=#BEC8D2;strokeWidth=2;strokeColor=#FFFFFF;" edge="1" parent="eG74CIP6f15DdXFKIOs7-1">
          <mxGeometry relative="1" as="geometry">
            <mxPoint x="490" y="280" as="sourcePoint" />
            <mxPoint x="550" y="280" as="targetPoint" />
          </mxGeometry>
        </mxCell>
        <mxCell id="eG74CIP6f15DdXFKIOs7-10" style="edgeStyle=none;rounded=0;orthogonalLoop=1;jettySize=auto;html=1;exitX=0.5;exitY=0;exitDx=0;exitDy=0;entryX=0.5;entryY=1;entryDx=0;entryDy=0;startArrow=none;startFill=0;endArrow=none;endFill=0;strokeColor=#98A2AE;strokeWidth=1;fontFamily=Manrope;fontSize=10;fontColor=#BEC8D2;" edge="1" parent="eG74CIP6f15DdXFKIOs7-1" source="eG74CIP6f15DdXFKIOs7-36" target="eG74CIP6f15DdXFKIOs7-32">
          <mxGeometry relative="1" as="geometry" />
        </mxCell>
        <mxCell id="eG74CIP6f15DdXFKIOs7-11" value="" style="ellipse;whiteSpace=wrap;html=1;aspect=fixed;rounded=1;gradientColor=none;fontFamily=Manrope;fontSize=10;fontColor=#BEC8D2;align=right;strokeColor=none;fillColor=#001135;" vertex="1" parent="eG74CIP6f15DdXFKIOs7-1">
          <mxGeometry x="610" y="238.99999999999997" width="14" height="14" as="geometry" />
        </mxCell>
        <mxCell id="eG74CIP6f15DdXFKIOs7-12" value="" style="ellipse;whiteSpace=wrap;html=1;aspect=fixed;rounded=1;gradientColor=none;fontFamily=Manrope;fontSize=10;fontColor=#BEC8D2;align=right;strokeColor=none;fillColor=#001135;" vertex="1" parent="eG74CIP6f15DdXFKIOs7-1">
          <mxGeometry x="670" y="238.99999999999997" width="14" height="14" as="geometry" />
        </mxCell>
        <mxCell id="eG74CIP6f15DdXFKIOs7-13" style="edgeStyle=none;rounded=0;orthogonalLoop=1;jettySize=auto;html=1;entryX=0.5;entryY=1;entryDx=0;entryDy=0;startArrow=none;startFill=0;endArrow=none;endFill=0;strokeColor=#98A2AE;strokeWidth=1;fontFamily=Manrope;fontSize=10;fontColor=#BEC8D2;exitX=0.5;exitY=0;exitDx=0;exitDy=0;" edge="1" parent="eG74CIP6f15DdXFKIOs7-1" source="eG74CIP6f15DdXFKIOs7-37" target="eG74CIP6f15DdXFKIOs7-32">
          <mxGeometry relative="1" as="geometry">
            <mxPoint x="615" y="297.42" as="sourcePoint" />
            <mxPoint x="611" y="295.42" as="targetPoint" />
          </mxGeometry>
        </mxCell>
        <mxCell id="eG74CIP6f15DdXFKIOs7-14" style="edgeStyle=none;rounded=0;orthogonalLoop=1;jettySize=auto;html=1;entryX=0.5;entryY=1;entryDx=0;entryDy=0;startArrow=none;startFill=0;endArrow=none;endFill=0;strokeColor=#98A2AE;strokeWidth=1;fontFamily=Manrope;fontSize=10;fontColor=#BEC8D2;exitX=0.5;exitY=0;exitDx=0;exitDy=0;" edge="1" parent="eG74CIP6f15DdXFKIOs7-1" source="eG74CIP6f15DdXFKIOs7-36" target="eG74CIP6f15DdXFKIOs7-33">
          <mxGeometry relative="1" as="geometry">
            <mxPoint x="627" y="307.42" as="sourcePoint" />
            <mxPoint x="611" y="295.42" as="targetPoint" />
          </mxGeometry>
        </mxCell>
        <mxCell id="eG74CIP6f15DdXFKIOs7-15" style="edgeStyle=none;rounded=0;orthogonalLoop=1;jettySize=auto;html=1;entryX=0.5;entryY=1;entryDx=0;entryDy=0;startArrow=none;startFill=0;endArrow=none;endFill=0;strokeColor=#98A2AE;strokeWidth=1;fontFamily=Manrope;fontSize=10;fontColor=#BEC8D2;exitX=0.5;exitY=0;exitDx=0;exitDy=0;" edge="1" parent="eG74CIP6f15DdXFKIOs7-1" source="eG74CIP6f15DdXFKIOs7-38" target="eG74CIP6f15DdXFKIOs7-34">
          <mxGeometry relative="1" as="geometry">
            <mxPoint x="650" y="297.42" as="sourcePoint" />
            <mxPoint x="643" y="295.42" as="targetPoint" />
          </mxGeometry>
        </mxCell>
        <mxCell id="eG74CIP6f15DdXFKIOs7-16" style="edgeStyle=none;rounded=0;orthogonalLoop=1;jettySize=auto;html=1;entryX=0.5;entryY=1;entryDx=0;entryDy=0;startArrow=none;startFill=0;endArrow=none;endFill=0;strokeColor=#98A2AE;strokeWidth=1;fontFamily=Manrope;fontSize=10;fontColor=#BEC8D2;exitX=0.5;exitY=0;exitDx=0;exitDy=0;" edge="1" parent="eG74CIP6f15DdXFKIOs7-1" source="eG74CIP6f15DdXFKIOs7-39" target="eG74CIP6f15DdXFKIOs7-34">
          <mxGeometry relative="1" as="geometry">
            <mxPoint x="656.9999999999999" y="307.42" as="sourcePoint" />
            <mxPoint x="671" y="295.42" as="targetPoint" />
          </mxGeometry>
        </mxCell>
        <mxCell id="eG74CIP6f15DdXFKIOs7-17" style="edgeStyle=none;rounded=0;orthogonalLoop=1;jettySize=auto;html=1;entryX=0.5;entryY=1;entryDx=0;entryDy=0;startArrow=none;startFill=0;endArrow=none;endFill=0;strokeColor=#98A2AE;strokeWidth=1;fontFamily=Manrope;fontSize=10;fontColor=#BEC8D2;exitX=0.5;exitY=0;exitDx=0;exitDy=0;" edge="1" parent="eG74CIP6f15DdXFKIOs7-1" source="eG74CIP6f15DdXFKIOs7-38" target="eG74CIP6f15DdXFKIOs7-35">
          <mxGeometry relative="1" as="geometry">
            <mxPoint x="687" y="307.42" as="sourcePoint" />
            <mxPoint x="671" y="295.42" as="targetPoint" />
          </mxGeometry>
        </mxCell>
        <mxCell id="eG74CIP6f15DdXFKIOs7-18" style="edgeStyle=none;rounded=0;orthogonalLoop=1;jettySize=auto;html=1;entryX=0.5;entryY=1;entryDx=0;entryDy=0;startArrow=none;startFill=0;endArrow=none;endFill=0;strokeColor=#98A2AE;strokeWidth=1;fontFamily=Manrope;fontSize=10;fontColor=#BEC8D2;exitX=0.5;exitY=0;exitDx=0;exitDy=0;" edge="1" parent="eG74CIP6f15DdXFKIOs7-1" source="eG74CIP6f15DdXFKIOs7-39" target="eG74CIP6f15DdXFKIOs7-35">
          <mxGeometry relative="1" as="geometry">
            <mxPoint x="656.9999999999999" y="307.42" as="sourcePoint" />
            <mxPoint x="701" y="295.42" as="targetPoint" />
          </mxGeometry>
        </mxCell>
        <mxCell id="eG74CIP6f15DdXFKIOs7-19" style="edgeStyle=none;rounded=0;orthogonalLoop=1;jettySize=auto;html=1;entryX=0.5;entryY=0;entryDx=0;entryDy=0;startArrow=none;startFill=0;endArrow=none;endFill=0;strokeColor=#98A2AE;strokeWidth=1;fontFamily=Manrope;fontSize=10;fontColor=#BEC8D2;exitX=0.5;exitY=1;exitDx=0;exitDy=0;" edge="1" parent="eG74CIP6f15DdXFKIOs7-1" source="eG74CIP6f15DdXFKIOs7-33" target="eG74CIP6f15DdXFKIOs7-37">
          <mxGeometry relative="1" as="geometry">
            <mxPoint x="626.9999999999999" y="307.42" as="sourcePoint" />
            <mxPoint x="611" y="295.42" as="targetPoint" />
          </mxGeometry>
        </mxCell>
        <mxCell id="eG74CIP6f15DdXFKIOs7-20" style="edgeStyle=none;rounded=0;orthogonalLoop=1;jettySize=auto;html=1;entryX=0.5;entryY=0;entryDx=0;entryDy=0;startArrow=none;startFill=0;endArrow=none;endFill=0;strokeColor=#98A2AE;strokeWidth=1;fontFamily=Manrope;fontSize=10;fontColor=#BEC8D2;exitX=0.5;exitY=1;exitDx=0;exitDy=0;" edge="1" parent="eG74CIP6f15DdXFKIOs7-1" source="eG74CIP6f15DdXFKIOs7-34" target="eG74CIP6f15DdXFKIOs7-37">
          <mxGeometry relative="1" as="geometry">
            <mxPoint x="643" y="295.42" as="sourcePoint" />
            <mxPoint x="627" y="307.42" as="targetPoint" />
          </mxGeometry>
        </mxCell>
        <mxCell id="eG74CIP6f15DdXFKIOs7-21" style="edgeStyle=none;rounded=0;orthogonalLoop=1;jettySize=auto;html=1;entryX=0.5;entryY=1;entryDx=0;entryDy=0;startArrow=none;startFill=0;endArrow=none;endFill=0;strokeColor=#98A2AE;strokeWidth=1;fontFamily=Manrope;fontSize=10;fontColor=#BEC8D2;exitX=0.5;exitY=0;exitDx=0;exitDy=0;" edge="1" parent="eG74CIP6f15DdXFKIOs7-1" source="eG74CIP6f15DdXFKIOs7-36" target="eG74CIP6f15DdXFKIOs7-34">
          <mxGeometry relative="1" as="geometry">
            <mxPoint x="657" y="307.42" as="sourcePoint" />
            <mxPoint x="671.0000000000002" y="295.42" as="targetPoint" />
          </mxGeometry>
        </mxCell>
        <mxCell id="eG74CIP6f15DdXFKIOs7-22" style="edgeStyle=none;rounded=0;orthogonalLoop=1;jettySize=auto;html=1;entryX=0.5;entryY=1;entryDx=0;entryDy=0;startArrow=none;startFill=0;endArrow=none;endFill=0;strokeColor=#98A2AE;strokeWidth=1;fontFamily=Manrope;fontSize=10;fontColor=#BEC8D2;exitX=0.5;exitY=0;exitDx=0;exitDy=0;" edge="1" parent="eG74CIP6f15DdXFKIOs7-1" source="eG74CIP6f15DdXFKIOs7-36" target="eG74CIP6f15DdXFKIOs7-35">
          <mxGeometry relative="1" as="geometry">
            <mxPoint x="596.9999999999999" y="307.42" as="sourcePoint" />
            <mxPoint x="671" y="295.4200000000001" as="targetPoint" />
          </mxGeometry>
        </mxCell>
        <mxCell id="eG74CIP6f15DdXFKIOs7-23" style="edgeStyle=none;rounded=0;orthogonalLoop=1;jettySize=auto;html=1;entryX=0.5;entryY=0;entryDx=0;entryDy=0;startArrow=none;startFill=0;endArrow=none;endFill=0;strokeColor=#98A2AE;strokeWidth=1;fontFamily=Manrope;fontSize=10;fontColor=#BEC8D2;exitX=0.5;exitY=1;exitDx=0;exitDy=0;" edge="1" parent="eG74CIP6f15DdXFKIOs7-1" source="eG74CIP6f15DdXFKIOs7-35" target="eG74CIP6f15DdXFKIOs7-37">
          <mxGeometry relative="1" as="geometry">
            <mxPoint x="671" y="295.4200000000001" as="sourcePoint" />
            <mxPoint x="626.9999999999998" y="307.42" as="targetPoint" />
          </mxGeometry>
        </mxCell>
        <mxCell id="eG74CIP6f15DdXFKIOs7-24" style="edgeStyle=none;rounded=0;orthogonalLoop=1;jettySize=auto;html=1;entryX=0.5;entryY=1;entryDx=0;entryDy=0;startArrow=none;startFill=0;endArrow=none;endFill=0;strokeColor=#98A2AE;strokeWidth=1;fontFamily=Manrope;fontSize=10;fontColor=#BEC8D2;exitX=0.5;exitY=0;exitDx=0;exitDy=0;" edge="1" parent="eG74CIP6f15DdXFKIOs7-1" source="eG74CIP6f15DdXFKIOs7-38" target="eG74CIP6f15DdXFKIOs7-32">
          <mxGeometry relative="1" as="geometry">
            <mxPoint x="656.9999999999998" y="307.42" as="sourcePoint" />
            <mxPoint x="671" y="295.4200000000001" as="targetPoint" />
          </mxGeometry>
        </mxCell>
        <mxCell id="eG74CIP6f15DdXFKIOs7-25" style="edgeStyle=none;rounded=0;orthogonalLoop=1;jettySize=auto;html=1;entryX=0.5;entryY=1;entryDx=0;entryDy=0;startArrow=none;startFill=0;endArrow=none;endFill=0;strokeColor=#98A2AE;strokeWidth=1;fontFamily=Manrope;fontSize=10;fontColor=#BEC8D2;exitX=0.5;exitY=0;exitDx=0;exitDy=0;" edge="1" parent="eG74CIP6f15DdXFKIOs7-1" source="eG74CIP6f15DdXFKIOs7-38" target="eG74CIP6f15DdXFKIOs7-33">
          <mxGeometry relative="1" as="geometry">
            <mxPoint x="656.9999999999998" y="307.42" as="sourcePoint" />
            <mxPoint x="610.9999999999999" y="295.4200000000001" as="targetPoint" />
          </mxGeometry>
        </mxCell>
        <mxCell id="eG74CIP6f15DdXFKIOs7-26" style="edgeStyle=none;rounded=0;orthogonalLoop=1;jettySize=auto;html=1;entryX=0.5;entryY=0;entryDx=0;entryDy=0;startArrow=none;startFill=0;endArrow=none;endFill=0;strokeColor=#98A2AE;strokeWidth=1;fontFamily=Manrope;fontSize=10;fontColor=#BEC8D2;exitX=0.5;exitY=1;exitDx=0;exitDy=0;" edge="1" parent="eG74CIP6f15DdXFKIOs7-1" source="eG74CIP6f15DdXFKIOs7-32" target="eG74CIP6f15DdXFKIOs7-40">
          <mxGeometry relative="1" as="geometry">
            <mxPoint x="687" y="307.42" as="sourcePoint" />
            <mxPoint x="700.9999999999999" y="295.42" as="targetPoint" />
          </mxGeometry>
        </mxCell>
        <mxCell id="eG74CIP6f15DdXFKIOs7-27" style="edgeStyle=none;rounded=0;orthogonalLoop=1;jettySize=auto;html=1;entryX=0.5;entryY=0;entryDx=0;entryDy=0;startArrow=none;startFill=0;endArrow=none;endFill=0;strokeColor=#98A2AE;strokeWidth=1;fontFamily=Manrope;fontSize=10;fontColor=#BEC8D2;exitX=0.5;exitY=1;exitDx=0;exitDy=0;" edge="1" parent="eG74CIP6f15DdXFKIOs7-1" source="eG74CIP6f15DdXFKIOs7-33" target="eG74CIP6f15DdXFKIOs7-40">
          <mxGeometry relative="1" as="geometry">
            <mxPoint x="611" y="295.42" as="sourcePoint" />
            <mxPoint x="717" y="307.42" as="targetPoint" />
          </mxGeometry>
        </mxCell>
        <mxCell id="eG74CIP6f15DdXFKIOs7-28" style="edgeStyle=none;rounded=0;orthogonalLoop=1;jettySize=auto;html=1;entryX=0.5;entryY=0;entryDx=0;entryDy=0;startArrow=none;startFill=0;endArrow=none;endFill=0;strokeColor=#98A2AE;strokeWidth=1;fontFamily=Manrope;fontSize=10;fontColor=#BEC8D2;exitX=0.5;exitY=1;exitDx=0;exitDy=0;" edge="1" parent="eG74CIP6f15DdXFKIOs7-1" source="eG74CIP6f15DdXFKIOs7-34" target="eG74CIP6f15DdXFKIOs7-40">
          <mxGeometry relative="1" as="geometry">
            <mxPoint x="643" y="295.42" as="sourcePoint" />
            <mxPoint x="717" y="307.42" as="targetPoint" />
          </mxGeometry>
        </mxCell>
        <mxCell id="eG74CIP6f15DdXFKIOs7-29" style="edgeStyle=none;rounded=0;orthogonalLoop=1;jettySize=auto;html=1;entryX=0.5;entryY=0;entryDx=0;entryDy=0;startArrow=none;startFill=0;endArrow=none;endFill=0;strokeColor=#98A2AE;strokeWidth=1;fontFamily=Manrope;fontSize=10;fontColor=#BEC8D2;exitX=0.5;exitY=1;exitDx=0;exitDy=0;" edge="1" parent="eG74CIP6f15DdXFKIOs7-1" source="eG74CIP6f15DdXFKIOs7-35" target="eG74CIP6f15DdXFKIOs7-40">
          <mxGeometry relative="1" as="geometry">
            <mxPoint x="670.9999999999999" y="295.42" as="sourcePoint" />
            <mxPoint x="717" y="307.42" as="targetPoint" />
          </mxGeometry>
        </mxCell>
        <mxCell id="eG74CIP6f15DdXFKIOs7-30" style="edgeStyle=none;rounded=0;orthogonalLoop=1;jettySize=auto;html=1;entryX=0.5;entryY=1;entryDx=0;entryDy=0;startArrow=none;startFill=0;endArrow=none;endFill=0;strokeColor=#98A2AE;strokeWidth=1;fontFamily=Manrope;fontSize=10;fontColor=#BEC8D2;exitX=0.5;exitY=0;exitDx=0;exitDy=0;" edge="1" parent="eG74CIP6f15DdXFKIOs7-1" source="eG74CIP6f15DdXFKIOs7-39" target="eG74CIP6f15DdXFKIOs7-32">
          <mxGeometry relative="1" as="geometry">
            <mxPoint x="687" y="307.42" as="sourcePoint" />
            <mxPoint x="670.9999999999999" y="295.42" as="targetPoint" />
          </mxGeometry>
        </mxCell>
        <mxCell id="eG74CIP6f15DdXFKIOs7-31" style="edgeStyle=none;rounded=0;orthogonalLoop=1;jettySize=auto;html=1;entryX=0.5;entryY=1;entryDx=0;entryDy=0;startArrow=none;startFill=0;endArrow=none;endFill=0;strokeColor=#98A2AE;strokeWidth=1;fontFamily=Manrope;fontSize=10;fontColor=#BEC8D2;exitX=0.5;exitY=0;exitDx=0;exitDy=0;" edge="1" parent="eG74CIP6f15DdXFKIOs7-1" source="eG74CIP6f15DdXFKIOs7-39" target="eG74CIP6f15DdXFKIOs7-33">
          <mxGeometry relative="1" as="geometry">
            <mxPoint x="687" y="307.42" as="sourcePoint" />
            <mxPoint x="611" y="295.42" as="targetPoint" />
          </mxGeometry>
        </mxCell>
        <mxCell id="eG74CIP6f15DdXFKIOs7-32" value="" style="ellipse;whiteSpace=wrap;html=1;aspect=fixed;rounded=1;gradientColor=none;fontFamily=Manrope;fontSize=10;fontColor=#BEC8D2;align=right;strokeColor=none;fillColor=#124191;" vertex="1" parent="eG74CIP6f15DdXFKIOs7-1">
          <mxGeometry x="594" y="271.42" width="14" height="14" as="geometry" />
        </mxCell>
        <mxCell id="eG74CIP6f15DdXFKIOs7-33" value="" style="ellipse;whiteSpace=wrap;html=1;aspect=fixed;rounded=1;gradientColor=none;fontFamily=Manrope;fontSize=10;fontColor=#BEC8D2;align=right;strokeColor=none;fillColor=#124191;" vertex="1" parent="eG74CIP6f15DdXFKIOs7-1">
          <mxGeometry x="626" y="271.42" width="14" height="14" as="geometry" />
        </mxCell>
        <mxCell id="eG74CIP6f15DdXFKIOs7-34" value="" style="ellipse;whiteSpace=wrap;html=1;aspect=fixed;rounded=1;gradientColor=none;fontFamily=Manrope;fontSize=10;fontColor=#BEC8D2;align=right;strokeColor=none;fillColor=#124191;" vertex="1" parent="eG74CIP6f15DdXFKIOs7-1">
          <mxGeometry x="654" y="271.42" width="14" height="14" as="geometry" />
        </mxCell>
        <mxCell id="eG74CIP6f15DdXFKIOs7-35" value="" style="ellipse;whiteSpace=wrap;html=1;aspect=fixed;rounded=1;gradientColor=none;fontFamily=Manrope;fontSize=10;fontColor=#BEC8D2;align=right;strokeColor=none;fillColor=#124191;" vertex="1" parent="eG74CIP6f15DdXFKIOs7-1">
          <mxGeometry x="684" y="271.42" width="14" height="14" as="geometry" />
        </mxCell>
        <mxCell id="eG74CIP6f15DdXFKIOs7-36" value="" style="ellipse;whiteSpace=wrap;html=1;aspect=fixed;rounded=1;gradientColor=none;fontFamily=Manrope;fontSize=10;fontColor=#BEC8D2;align=right;strokeColor=none;fillColor=#00C9FF;" vertex="1" parent="eG74CIP6f15DdXFKIOs7-1">
          <mxGeometry x="580" y="307.42" width="14" height="14" as="geometry" />
        </mxCell>
        <mxCell id="eG74CIP6f15DdXFKIOs7-37" value="" style="ellipse;whiteSpace=wrap;html=1;aspect=fixed;rounded=1;gradientColor=none;fontFamily=Manrope;fontSize=10;fontColor=#BEC8D2;align=right;strokeColor=none;fillColor=#00C9FF;" vertex="1" parent="eG74CIP6f15DdXFKIOs7-1">
          <mxGeometry x="610" y="307.42" width="14" height="14" as="geometry" />
        </mxCell>
        <mxCell id="eG74CIP6f15DdXFKIOs7-38" value="" style="ellipse;whiteSpace=wrap;html=1;aspect=fixed;rounded=1;gradientColor=none;fontFamily=Manrope;fontSize=10;fontColor=#BEC8D2;align=right;strokeColor=none;fillColor=#00C9FF;" vertex="1" parent="eG74CIP6f15DdXFKIOs7-1">
          <mxGeometry x="640" y="307.42" width="14" height="14" as="geometry" />
        </mxCell>
        <mxCell id="eG74CIP6f15DdXFKIOs7-39" value="" style="ellipse;whiteSpace=wrap;html=1;aspect=fixed;rounded=1;gradientColor=none;fontFamily=Manrope;fontSize=10;fontColor=#BEC8D2;align=right;strokeColor=none;fillColor=#00C9FF;" vertex="1" parent="eG74CIP6f15DdXFKIOs7-1">
          <mxGeometry x="670" y="307.42" width="14" height="14" as="geometry" />
        </mxCell>
        <mxCell id="eG74CIP6f15DdXFKIOs7-40" value="" style="ellipse;whiteSpace=wrap;html=1;aspect=fixed;rounded=1;gradientColor=none;fontFamily=Manrope;fontSize=10;fontColor=#BEC8D2;align=right;strokeColor=none;fillColor=#00C9FF;" vertex="1" parent="eG74CIP6f15DdXFKIOs7-1">
          <mxGeometry x="700" y="307.42" width="14" height="14" as="geometry" />
        </mxCell>
        <mxCell id="eG74CIP6f15DdXFKIOs7-41" style="edgeStyle=none;rounded=0;orthogonalLoop=1;jettySize=auto;html=1;exitX=0.5;exitY=0;exitDx=0;exitDy=0;entryX=0.5;entryY=1;entryDx=0;entryDy=0;startArrow=none;startFill=0;endArrow=none;endFill=0;strokeColor=#98A2AE;strokeWidth=1;fontFamily=Manrope;fontSize=10;fontColor=#BEC8D2;" edge="1" parent="eG74CIP6f15DdXFKIOs7-1" source="eG74CIP6f15DdXFKIOs7-32" target="eG74CIP6f15DdXFKIOs7-11">
          <mxGeometry relative="1" as="geometry">
            <mxPoint x="594" y="271.42" as="sourcePoint" />
            <mxPoint x="608" y="249.4200000000001" as="targetPoint" />
          </mxGeometry>
        </mxCell>
        <mxCell id="eG74CIP6f15DdXFKIOs7-42" style="edgeStyle=none;rounded=0;orthogonalLoop=1;jettySize=auto;html=1;exitX=0.5;exitY=0;exitDx=0;exitDy=0;entryX=0.5;entryY=1;entryDx=0;entryDy=0;startArrow=none;startFill=0;endArrow=none;endFill=0;strokeColor=#98A2AE;strokeWidth=1;fontFamily=Manrope;fontSize=10;fontColor=#BEC8D2;" edge="1" parent="eG74CIP6f15DdXFKIOs7-1" source="eG74CIP6f15DdXFKIOs7-32" target="eG74CIP6f15DdXFKIOs7-12">
          <mxGeometry relative="1" as="geometry">
            <mxPoint x="611" y="281.42" as="sourcePoint" />
            <mxPoint x="627" y="263.00000000000006" as="targetPoint" />
          </mxGeometry>
        </mxCell>
        <mxCell id="eG74CIP6f15DdXFKIOs7-43" style="edgeStyle=none;rounded=0;orthogonalLoop=1;jettySize=auto;html=1;exitX=0.5;exitY=0;exitDx=0;exitDy=0;entryX=0.5;entryY=1;entryDx=0;entryDy=0;startArrow=none;startFill=0;endArrow=none;endFill=0;strokeColor=#98A2AE;strokeWidth=1;fontFamily=Manrope;fontSize=10;fontColor=#BEC8D2;" edge="1" parent="eG74CIP6f15DdXFKIOs7-1" source="eG74CIP6f15DdXFKIOs7-33" target="eG74CIP6f15DdXFKIOs7-11">
          <mxGeometry relative="1" as="geometry">
            <mxPoint x="611" y="281.42" as="sourcePoint" />
            <mxPoint x="687" y="263.00000000000006" as="targetPoint" />
          </mxGeometry>
        </mxCell>
        <mxCell id="eG74CIP6f15DdXFKIOs7-44" style="edgeStyle=none;rounded=0;orthogonalLoop=1;jettySize=auto;html=1;exitX=0.5;exitY=0;exitDx=0;exitDy=0;entryX=0.5;entryY=1;entryDx=0;entryDy=0;startArrow=none;startFill=0;endArrow=none;endFill=0;strokeColor=#98A2AE;strokeWidth=1;fontFamily=Manrope;fontSize=10;fontColor=#BEC8D2;" edge="1" parent="eG74CIP6f15DdXFKIOs7-1" source="eG74CIP6f15DdXFKIOs7-34" target="eG74CIP6f15DdXFKIOs7-12">
          <mxGeometry relative="1" as="geometry">
            <mxPoint x="643" y="281.42" as="sourcePoint" />
            <mxPoint x="627" y="263.00000000000006" as="targetPoint" />
          </mxGeometry>
        </mxCell>
        <mxCell id="eG74CIP6f15DdXFKIOs7-45" style="edgeStyle=none;rounded=0;orthogonalLoop=1;jettySize=auto;html=1;exitX=0.5;exitY=0;exitDx=0;exitDy=0;entryX=0.5;entryY=1;entryDx=0;entryDy=0;startArrow=none;startFill=0;endArrow=none;endFill=0;strokeColor=#98A2AE;strokeWidth=1;fontFamily=Manrope;fontSize=10;fontColor=#BEC8D2;" edge="1" parent="eG74CIP6f15DdXFKIOs7-1" source="eG74CIP6f15DdXFKIOs7-35" target="eG74CIP6f15DdXFKIOs7-12">
          <mxGeometry relative="1" as="geometry">
            <mxPoint x="671" y="281.42" as="sourcePoint" />
            <mxPoint x="687" y="263.00000000000006" as="targetPoint" />
          </mxGeometry>
        </mxCell>
        <mxCell id="eG74CIP6f15DdXFKIOs7-46" style="edgeStyle=none;rounded=0;orthogonalLoop=1;jettySize=auto;html=1;exitX=0.5;exitY=0;exitDx=0;exitDy=0;entryX=0.5;entryY=1;entryDx=0;entryDy=0;startArrow=none;startFill=0;endArrow=none;endFill=0;strokeColor=#98A2AE;strokeWidth=1;fontFamily=Manrope;fontSize=10;fontColor=#BEC8D2;" edge="1" parent="eG74CIP6f15DdXFKIOs7-1" source="eG74CIP6f15DdXFKIOs7-33" target="eG74CIP6f15DdXFKIOs7-12">
          <mxGeometry relative="1" as="geometry">
            <mxPoint x="611" y="281.42" as="sourcePoint" />
            <mxPoint x="687" y="263.00000000000006" as="targetPoint" />
          </mxGeometry>
        </mxCell>
        <mxCell id="eG74CIP6f15DdXFKIOs7-47" style="edgeStyle=none;rounded=0;orthogonalLoop=1;jettySize=auto;html=1;exitX=0.5;exitY=0;exitDx=0;exitDy=0;entryX=0.5;entryY=1;entryDx=0;entryDy=0;startArrow=none;startFill=0;endArrow=none;endFill=0;strokeColor=#98A2AE;strokeWidth=1;fontFamily=Manrope;fontSize=10;fontColor=#BEC8D2;" edge="1" parent="eG74CIP6f15DdXFKIOs7-1" source="eG74CIP6f15DdXFKIOs7-34" target="eG74CIP6f15DdXFKIOs7-11">
          <mxGeometry relative="1" as="geometry">
            <mxPoint x="671" y="281.42" as="sourcePoint" />
            <mxPoint x="687" y="263.00000000000006" as="targetPoint" />
          </mxGeometry>
        </mxCell>
        <mxCell id="eG74CIP6f15DdXFKIOs7-48" style="edgeStyle=none;rounded=0;orthogonalLoop=1;jettySize=auto;html=1;exitX=0.5;exitY=0;exitDx=0;exitDy=0;entryX=0.5;entryY=1;entryDx=0;entryDy=0;startArrow=none;startFill=0;endArrow=none;endFill=0;strokeColor=#98A2AE;strokeWidth=1;fontFamily=Manrope;fontSize=10;fontColor=#BEC8D2;" edge="1" parent="eG74CIP6f15DdXFKIOs7-1" source="eG74CIP6f15DdXFKIOs7-35" target="eG74CIP6f15DdXFKIOs7-11">
          <mxGeometry relative="1" as="geometry">
            <mxPoint x="671" y="281.42" as="sourcePoint" />
            <mxPoint x="627" y="263.00000000000006" as="targetPoint" />
          </mxGeometry>
        </mxCell>
        <mxCell id="eG74CIP6f15DdXFKIOs7-49" value="" style="rounded=0;whiteSpace=wrap;html=1;gradientColor=none;fontFamily=Manrope;fontSize=10;fontColor=#BEC8D2;align=right;fillColor=none;dashed=1;strokeColor=#FFFFFF;" vertex="1" parent="eG74CIP6f15DdXFKIOs7-1">
          <mxGeometry x="570" y="227.42" width="160" height="101.58" as="geometry" />
        </mxCell>
        <mxCell id="eG74CIP6f15DdXFKIOs7-50" value="" style="shape=image;verticalLabelPosition=bottom;labelBackgroundColor=#ffffff;verticalAlign=top;aspect=fixed;imageAspect=0;image=data:image/svg+xml,PHN2ZyB4bWxucz0iaHR0cDovL3d3dy53My5vcmcvMjAwMC9zdmciIHZpZXdCb3g9IjAgMCA0NDggNTEyIj48cGF0aCBjbGFzcz0iY29sb3IiIGQ9Ik00MzcuMiA0MDMuNUwzMjAgMjE1VjY0aDhjMTMuMyAwIDI0LTEwLjcgMjQtMjRWMjRjMC0xMy4zLTEwLjctMjQtMjQtMjRIMTIwYy0xMy4zIDAtMjQgMTAuNy0yNCAyNHYxNmMwIDEzLjMgMTAuNyAyNCAyNCAyNGg4djE1MUwxMC44IDQwMy41Qy0xOC41IDQ1MC42IDE1LjMgNTEyIDcwLjkgNTEyaDMwNi4yYzU1LjcgMCA4OS40LTYxLjUgNjAuMS0xMDguNXpNMTM3LjkgMzIwbDQ4LjItNzcuNmMzLjctNS4yIDUuOC0xMS42IDUuOC0xOC40VjY0aDY0djE2MGMwIDYuOSAyLjIgMTMuMiA1LjggMTguNGw0OC4yIDc3LjZoLTE3MnoiLz48c3R5bGUgdHlwZT0idGV4dC9jc3MiPi5jb2xvciB7IGZpbGw6IHJnYigxOTAsIDIwMCwgMjEwKTsgfSA8L3N0eWxlPjwvc3ZnPg==;editableCssRules=\.color;strokeColor=#4D5766;fontColor=#001135;" vertex="1" parent="eG74CIP6f15DdXFKIOs7-1">
          <mxGeometry x="211.74" y="224.41" width="18.52" height="21.17" as="geometry" />
        </mxCell>
        <mxCell id="eG74CIP6f15DdXFKIOs7-51" value="" style="shape=image;verticalLabelPosition=bottom;labelBackgroundColor=#ffffff;verticalAlign=top;aspect=fixed;imageAspect=0;image=data:image/svg+xml,PHN2ZyB4bWxucz0iaHR0cDovL3d3dy53My5vcmcvMjAwMC9zdmciIHZpZXdCb3g9IjAgMCA0NDggNTEyIj48cGF0aCBjbGFzcz0iY29sb3IiIGQ9Ik00MzcuMiA0MDMuNUwzMjAgMjE1VjY0aDhjMTMuMyAwIDI0LTEwLjcgMjQtMjRWMjRjMC0xMy4zLTEwLjctMjQtMjQtMjRIMTIwYy0xMy4zIDAtMjQgMTAuNy0yNCAyNHYxNmMwIDEzLjMgMTAuNyAyNCAyNCAyNGg4djE1MUwxMC44IDQwMy41Qy0xOC41IDQ1MC42IDE1LjMgNTEyIDcwLjkgNTEyaDMwNi4yYzU1LjcgMCA4OS40LTYxLjUgNjAuMS0xMDguNXpNMTM3LjkgMzIwbDQ4LjItNzcuNmMzLjctNS4yIDUuOC0xMS42IDUuOC0xOC40VjY0aDY0djE2MGMwIDYuOSAyLjIgMTMuMiA1LjggMTguNGw0OC4yIDc3LjZoLTE3MnoiLz48c3R5bGUgdHlwZT0idGV4dC9jc3MiPi5jb2xvciB7IGZpbGw6IHJnYigxOTAsIDIwMCwgMjEwKTsgfSA8L3N0eWxlPjwvc3ZnPg==;editableCssRules=\.color;strokeColor=#4D5766;fontColor=#001135;" vertex="1" parent="eG74CIP6f15DdXFKIOs7-1">
          <mxGeometry x="211.74" y="314.40999999999997" width="18.52" height="21.17" as="geometry" />
        </mxCell>
        <mxCell id="eG74CIP6f15DdXFKIOs7-53" value="" style="shape=image;verticalLabelPosition=bottom;verticalAlign=top;imageAspect=0;aspect=fixed;image=data:image/svg+xml,PHN2ZyB4bWxuczpkYz0iaHR0cDovL3B1cmwub3JnL2RjL2VsZW1lbnRzLzEuMS8iIHhtbG5zOmNjPSJodHRwOi8vY3JlYXRpdmVjb21tb25zLm9yZy9ucyMiIHhtbG5zOnJkZj0iaHR0cDovL3d3dy53My5vcmcvMTk5OS8wMi8yMi1yZGYtc3ludGF4LW5zIyIgeG1sbnM6c3ZnPSJodHRwOi8vd3d3LnczLm9yZy8yMDAwL3N2ZyIgeG1sbnM9Imh0dHA6Ly93d3cudzMub3JnLzIwMDAvc3ZnIiB4bWxuczpzb2RpcG9kaT0iaHR0cDovL3NvZGlwb2RpLnNvdXJjZWZvcmdlLm5ldC9EVEQvc29kaXBvZGktMC5kdGQiIHhtbG5zOmlua3NjYXBlPSJodHRwOi8vd3d3Lmlua3NjYXBlLm9yZy9uYW1lc3BhY2VzL2lua3NjYXBlIiBpbmtzY2FwZTp2ZXJzaW9uPSIxLjByYzEgKDA5OTYwZDYsIDIwMjAtMDQtMDkpIiBzb2RpcG9kaTpkb2NuYW1lPSJjb250YWluZXJsYWJfZXhwb3J0X3doaXRlX2luay5zdmciIHZpZXdCb3g9IjkuOTk3OTkzNDY5MjM4MjgxIDEwLjAwNDU3NzYzNjcxODc1IDE1OC44OTk5MzI4NjEzMjgxMiAxMzMuNDE5NDMzNTkzNzUiIHZlcnNpb249IjEuMSIgaGVpZ2h0PSIxMzMuNDE5NDMzNTkzNzUiIHdpZHRoPSIxNTguODk5OTMyODYxMzI4MTIiIGlkPSJzdmciPiYjeGE7ICA8bWV0YWRhdGEgaWQ9Im1ldGFkYXRhODg2Ij4mI3hhOyAgICA8cmRmOnJkZj4mI3hhOyAgICAgIDxjYzp3b3JrIHJkZjphYm91dD0iIj4mI3hhOyAgICAgICAgPGRjOmZvcm1hdD5pbWFnZS9zdmcreG1sPC9kYzpmb3JtYXQ+JiN4YTsgICAgICAgIDxkYzp0eXBlIHJkZjpyZXNvdXJjZT0iaHR0cDovL3B1cmwub3JnL2RjL2RjbWl0eXBlL1N0aWxsSW1hZ2UiLz4mI3hhOyAgICAgICAgPGRjOnRpdGxlLz4mI3hhOyAgICAgIDwvY2M6d29yaz4mI3hhOyAgICA8L3JkZjpyZGY+JiN4YTsgIDwvbWV0YWRhdGE+JiN4YTsgIDxkZWZzIGlkPSJkZWZzODg0Ii8+JiN4YTsgIDxzb2RpcG9kaTpuYW1lZHZpZXcgaW5rc2NhcGU6Y3VycmVudC1sYXllcj0iZzg3OSIgaW5rc2NhcGU6d2luZG93LW1heGltaXplZD0iMCIgaW5rc2NhcGU6d2luZG93LXk9IjIzIiBpbmtzY2FwZTp3aW5kb3cteD0iMCIgaW5rc2NhcGU6Y3k9IjEzMC4yNTY0MSIgaW5rc2NhcGU6Y3g9IjE2Ny45MjMzIiBpbmtzY2FwZTp6b29tPSIyLjU0MDA2NjYiIHNob3dncmlkPSJmYWxzZSIgaWQ9Im5hbWVkdmlldzg4MiIgaW5rc2NhcGU6d2luZG93LWhlaWdodD0iMTIyMiIgaW5rc2NhcGU6d2luZG93LXdpZHRoPSIyMDA4IiBpbmtzY2FwZTpwYWdlc2hhZG93PSIyIiBpbmtzY2FwZTpwYWdlb3BhY2l0eT0iMCIgZ3VpZGV0b2xlcmFuY2U9IjEwIiBncmlkdG9sZXJhbmNlPSIxMCIgb2JqZWN0dG9sZXJhbmNlPSIxMCIgYm9yZGVyb3BhY2l0eT0iMSIgYm9yZGVyY29sb3I9IiM2NjY2NjYiIHBhZ2Vjb2xvcj0iI2ZmZmZmZiIvPiYjeGE7ICA8ZyBpZD0iZzg0MyIgdHJhbnNmb3JtPSJ0cmFuc2xhdGUoLTEwNC4yNiAtOTcuNjU0KSI+JiN4YTsgICAgPGcgaWQ9Imc4MzkiIHN0cm9rZS13aWR0aD0iLjgiIHN0cm9rZT0iIzAwYzlmZiIgZmlsbD0ibm9uZSI+JiN4YTsgICAgICA8cGF0aCBpZD0icGF0aDgzMyIgZD0ibTE5Ny4wOSAxNjUuODZhMS43NTc4IDEuNzgyOSAwIDAgMS0xLjc1NzggMS43ODI5IDEuNzU3OCAxLjc4MjkgMCAwIDEtMS43NTc4LTEuNzgyOSAxLjc1NzggMS43ODI5IDAgMCAxIDEuNzU3OC0xLjc4MjkgMS43NTc4IDEuNzgyOSAwIDAgMSAxLjc1NzggMS43ODI5Ii8+JiN4YTsgICAgICA8cGF0aCBpZD0icGF0aDgzNSIgZD0ibTE4OS42MiAxNjEuNjZhMi43NTg4IDIuNjUzIDAgMCAxLTIuNzU4OCAyLjY1MyAyLjc1ODggMi42NTMgMCAwIDEtMi43NTg4LTIuNjUzIDIuNzU4OCAyLjY1MyAwIDAgMSAyLjc1ODgtMi42NTMgMi43NTg4IDIuNjUzIDAgMCAxIDIuNzU4OCAyLjY1MyIvPiYjeGE7ICAgICAgPHBhdGggaWQ9InBhdGg4MzciIGQ9Im0xOTYuNDkgMTUyLjQxYTQuMTA0MyAzLjk2MSAwIDAgMS00LjEwNDMgMy45NjEgNC4xMDQzIDMuOTYxIDAgMCAxLTQuMTA0My0zLjk2MSA0LjEwNDMgMy45NjEgMCAwIDEgNC4xMDQzLTMuOTYxIDQuMTA0MyAzLjk2MSAwIDAgMSA0LjEwNDMgMy45NjEiLz4mI3hhOyAgICA8L2c+JiN4YTsgICAgPHBhdGggaWQ9InBhdGg4NDEiIGZpbGw9IiMwMGM5ZmYiIGQ9Im0xODQuNjkgMTY4Ljk2Yy0wLjUwNSAwLjIxMy0xLjUyOCAwLjg1Mi0yLjI3MyAxLjQyLTEuNDMgMS4wOTEtMy4xNTYgMS4zNjItNS4zMDggMC44MzQtMS41NTMtMC4zODEtMS42NjMgMC4wNjgtMC41OSAyLjQwMSA2LjYzMSAxNC40MiAyNi44NDggMTQuODk2IDMzLjg4IDAuNzk5IDEuNTc5LTMuMTY1IDEuNDMzLTMuNzItMC44MTgtMy4wOTgtMS45IDAuNTI0LTMuMTggMC4yMjctNC45NzItMS4xNTctMi40MzYtMS44ODEtNS42OTYtMS44ODMtNy4zOTYtNGUtMyAtMS43MDIgMS44ODEtNS4zNjEgMS43OTMtNy40NzctMC4xNzgtMS4xOTktMS4xMTgtMy42MzktMS42MDktNS4wNDYtMS4wMTciLz4mI3hhOyAgPC9nPiYjeGE7ICA8ZyBpZD0iZzg3NSIgdHJhbnNmb3JtPSJ0cmFuc2xhdGUoLTEwNC4yNiwtOTcuNjU0KSI+JiN4YTsgICAgPGcgaWQ9Imc4NzMiIGFyaWEtbGFiZWw9IkNPTlRBSU5FUmxhYiI+JiN4YTsgICAgICA8ZyBzdHlsZT0iZmlsbDojZmZmZmZmO2ZpbGwtb3BhY2l0eToxIiBpZD0iZzg2MyIgZmlsbD0iIzAwMTEzNSI+JiN4YTsgICAgICAgIDxwYXRoIGlua3NjYXBlOmNvbm5lY3Rvci1jdXJ2YXR1cmU9IjAiIGlkPSJwYXRoODQ1IiBzdHlsZT0iZm9udC12YXJpYW50LWxpZ2F0dXJlczpub3JtYWw7Zm9udC12YXJpYW50LWNhcHM6bm9ybWFsO2ZvbnQtdmFyaWFudC1udW1lcmljOm5vcm1hbDtmb250LXZhcmlhbnQtZWFzdC1hc2lhbjpub3JtYWw7ZmlsbDojZmZmZmZmO2ZpbGwtb3BhY2l0eToxIiBkPSJtIDEyMS41MywyMjQuOSBxIC0yLjcxMiwwIC00LjIsMS44OTYgLTEuNDg4LDEuODcyIC0xLjQ4OCw1LjU2OCAwLDMuNzkyIDEuNDg4LDUuNTQ0IDEuNDg4LDEuNzI4IDQuMiwxLjcyOCAwLjc5MiwwIDEuNDQsLTAuMTQ0IDAuNjcyLC0wLjE0NCAxLjIyNCwtMC4zNiAwLjU1MiwtMC4yMTYgMC45ODQsLTAuNDggMC40MzIsLTAuMjY0IDAuNzQ0LC0wLjUwNCBsIDAuNjk2LDEuMDggcSAtMC44MTYsMC42OTYgLTIuMTYsMS4yMjQgLTEuMzIsMC41MjggLTMuMDI0LDAuNTI4IC0zLjY3MiwwIC01LjQyNCwtMi4yMzIgLTEuNzUyLC0yLjIzMiAtMS43NTIsLTYuMzg0IDAsLTEuOTY4IDAuNDMyLC0zLjU3NiAwLjQ1NiwtMS42MzIgMS4zNDQsLTIuNzg0IDAuOTEyLC0xLjE1MiAyLjI1NiwtMS43NzYgMS4zNjgsLTAuNjQ4IDMuMTkyLC0wLjY0OCAwLjk4NCwwIDEuOCwwLjE5MiAwLjgxNiwwLjE5MiAxLjQ0LDAuNDggMC42MjQsMC4yNjQgMS4wNTYsMC41NzYgMC40NTYsMC4yODggMC43MiwwLjUyOCBsIC0wLjc2OCwxLjA4IHEgLTAuNiwtMC41MDQgLTEuNjMyLC0xLjAwOCAtMS4wMzIsLTAuNTI4IC0yLjU2OCwtMC41MjggeiIvPiYjeGE7ICAgICAgICA8cGF0aCBpbmtzY2FwZTpjb25uZWN0b3ItY3VydmF0dXJlPSIwIiBpZD0icGF0aDg0NyIgc3R5bGU9ImZvbnQtdmFyaWFudC1saWdhdHVyZXM6bm9ybWFsO2ZvbnQtdmFyaWFudC1jYXBzOm5vcm1hbDtmb250LXZhcmlhbnQtbnVtZXJpYzpub3JtYWw7Zm9udC12YXJpYW50LWVhc3QtYXNpYW46bm9ybWFsO2ZpbGw6I2ZmZmZmZjtmaWxsLW9wYWNpdHk6MSIgZD0ibSAxMjkuMTksMjMyLjI3IHEgMCwtMS45NjggMC40NTYsLTMuNTc2IDAuNDgsLTEuNjMyIDEuMzkyLC0yLjc4NCAwLjkxMiwtMS4xNTIgMi4yNTYsLTEuNzc2IDEuMzQ0LC0wLjY0OCAzLjA3MiwtMC42NDggMS43MjgsMCAzLjA0OCwwLjY0OCAxLjM0NCwwLjYyNCAyLjIzMiwxLjc3NiAwLjkxMiwxLjE1MiAxLjM2OCwyLjc4NCAwLjQ4LDEuNjA4IDAuNDgsMy41NzYgMCwxLjk2OCAtMC40OCwzLjYgLTAuNDU2LDEuNjA4IC0xLjM2OCwyLjc4NCAtMC44ODgsMS4xNTIgLTIuMjMyLDEuOCAtMS4zNDQsMC42MjQgLTMuMDcyLDAuNjI0IC0xLjcyOCwwIC0zLjA3MiwtMC42MjQgLTEuMzQ0LC0wLjY0OCAtMi4yNTYsLTEuOCAtMC44ODgsLTEuMTc2IC0xLjM2OCwtMi43ODQgLTAuNDU2LC0xLjYzMiAtMC40NTYsLTMuNiB6IG0gMS41ODQsMCBxIDAsMS42OCAwLjMzNiwzLjA0OCAwLjMzNiwxLjM0NCAxLjAzMiwyLjMyOCAwLjY5NiwwLjk2IDEuNzI4LDEuNDg4IDEuMDU2LDAuNTI4IDIuNDcyLDAuNTI4IDEuNDE2LDAgMi40NDgsLTAuNTI4IDEuMDU2LC0wLjUyOCAxLjc1MiwtMS40ODggMC42OTYsLTAuOTg0IDEuMDMyLC0yLjMyOCAwLjMzNiwtMS4zNjggMC4zMzYsLTMuMDQ4IDAsLTEuNjggLTAuMzM2LC0zLjAyNCAtMC4zMzYsLTEuMzY4IC0xLjAzMiwtMi4zMjggLTAuNjk2LC0wLjk2IC0xLjc1MiwtMS40ODggLTEuMDMyLC0wLjUyOCAtMi40NDgsLTAuNTI4IC0xLjQxNiwwIC0yLjQ3MiwwLjUyOCAtMS4wMzIsMC41MjggLTEuNzI4LDEuNDg4IC0wLjY5NiwwLjk2IC0xLjAzMiwyLjMyOCAtMC4zMzYsMS4zNDQgLTAuMzM2LDMuMDI0IHoiLz4mI3hhOyAgICAgICAgPHBhdGggaW5rc2NhcGU6Y29ubmVjdG9yLWN1cnZhdHVyZT0iMCIgaWQ9InBhdGg4NDkiIHN0eWxlPSJmb250LXZhcmlhbnQtbGlnYXR1cmVzOm5vcm1hbDtmb250LXZhcmlhbnQtY2Fwczpub3JtYWw7Zm9udC12YXJpYW50LW51bWVyaWM6bm9ybWFsO2ZvbnQtdmFyaWFudC1lYXN0LWFzaWFuOm5vcm1hbDtmaWxsOiNmZmZmZmY7ZmlsbC1vcGFjaXR5OjEiIGQ9Im0gMTQ5LjYzLDIyNi4zNCB2IDE0LjM3NiBoIC0xLjQ2NCB2IC0xNi44NzIgaCAxLjU4NCBsIDguMzc2LDE0LjMwNCB2IC0xNC4zMDQgaCAxLjQ2NCB2IDE2Ljg3MiBoIC0xLjQ2NCB6Ii8+JiN4YTsgICAgICAgIDxwYXRoIGlua3NjYXBlOmNvbm5lY3Rvci1jdXJ2YXR1cmU9IjAiIGlkPSJwYXRoODUxIiBzdHlsZT0iZm9udC12YXJpYW50LWxpZ2F0dXJlczpub3JtYWw7Zm9udC12YXJpYW50LWNhcHM6bm9ybWFsO2ZvbnQtdmFyaWFudC1udW1lcmljOm5vcm1hbDtmb250LXZhcmlhbnQtZWFzdC1hc2lhbjpub3JtYWw7ZmlsbDojZmZmZmZmO2ZpbGwtb3BhY2l0eToxIiBkPSJtIDE2OC42MywyMjUuMjYgaCAtNS4xODQgdiAtMS40MTYgaCAxMS44NTYgdiAxLjQxNiBoIC01LjE2IHYgMTUuNDU2IGggLTEuNTEyIHoiLz4mI3hhOyAgICAgICAgPHBhdGggaW5rc2NhcGU6Y29ubmVjdG9yLWN1cnZhdHVyZT0iMCIgaWQ9InBhdGg4NTMiIHN0eWxlPSJmb250LXZhcmlhbnQtbGlnYXR1cmVzOm5vcm1hbDtmb250LXZhcmlhbnQtY2Fwczpub3JtYWw7Zm9udC12YXJpYW50LW51bWVyaWM6bm9ybWFsO2ZvbnQtdmFyaWFudC1lYXN0LWFzaWFuOm5vcm1hbDtmaWxsOiNmZmZmZmY7ZmlsbC1vcGFjaXR5OjEiIGQ9Im0gMTg1LDIzNi4wMSBoIC02LjkzNiBsIC0xLjUxMiw0LjcwNCBoIC0xLjQ0IGwgNS42NCwtMTYuODcyIGggMS42OCBsIDUuNjY0LDE2Ljg3MiBoIC0xLjU2IHogbSAtNi41MjgsLTEuMzIgaCA2LjA5NiBsIC0zLjAyNCwtOS4xMiB6Ii8+JiN4YTsgICAgICAgIDxwYXRoIGlua3NjYXBlOmNvbm5lY3Rvci1jdXJ2YXR1cmU9IjAiIGlkPSJwYXRoODU1IiBzdHlsZT0iZm9udC12YXJpYW50LWxpZ2F0dXJlczpub3JtYWw7Zm9udC12YXJpYW50LWNhcHM6bm9ybWFsO2ZvbnQtdmFyaWFudC1udW1lcmljOm5vcm1hbDtmb250LXZhcmlhbnQtZWFzdC1hc2lhbjpub3JtYWw7ZmlsbDojZmZmZmZmO2ZpbGwtb3BhY2l0eToxIiBkPSJtIDE5My4wNSwyNDAuNzIgaCAtMS41MTIgdiAtMTYuODcyIGggMS41MTIgeiIvPiYjeGE7ICAgICAgICA8cGF0aCBpbmtzY2FwZTpjb25uZWN0b3ItY3VydmF0dXJlPSIwIiBpZD0icGF0aDg1NyIgc3R5bGU9ImZvbnQtdmFyaWFudC1saWdhdHVyZXM6bm9ybWFsO2ZvbnQtdmFyaWFudC1jYXBzOm5vcm1hbDtmb250LXZhcmlhbnQtbnVtZXJpYzpub3JtYWw7Zm9udC12YXJpYW50LWVhc3QtYXNpYW46bm9ybWFsO2ZpbGw6I2ZmZmZmZjtmaWxsLW9wYWNpdHk6MSIgZD0ibSAxOTkuNzEsMjI2LjM0IHYgMTQuMzc2IGggLTEuNDY0IHYgLTE2Ljg3MiBoIDEuNTg0IGwgOC4zNzYsMTQuMzA0IHYgLTE0LjMwNCBoIDEuNDY0IHYgMTYuODcyIGggLTEuNDY0IHoiLz4mI3hhOyAgICAgICAgPHBhdGggaW5rc2NhcGU6Y29ubmVjdG9yLWN1cnZhdHVyZT0iMCIgaWQ9InBhdGg4NTkiIHN0eWxlPSJmb250LXZhcmlhbnQtbGlnYXR1cmVzOm5vcm1hbDtmb250LXZhcmlhbnQtY2Fwczpub3JtYWw7Zm9udC12YXJpYW50LW51bWVyaWM6bm9ybWFsO2ZvbnQtdmFyaWFudC1lYXN0LWFzaWFuOm5vcm1hbDtmaWxsOiNmZmZmZmY7ZmlsbC1vcGFjaXR5OjEiIGQ9Im0gMjE0Ljg5LDIyMy44NSBoIDkuMzEyIHYgMS4zOTIgaCAtNy44IHYgNiBoIDYuMDk2IHYgMS4zOTIgaCAtNi4wOTYgdiA2LjY5NiBoIDguMDQgdiAxLjM5MiBoIC05LjU1MiB6Ii8+JiN4YTsgICAgICAgIDxwYXRoIGlua3NjYXBlOmNvbm5lY3Rvci1jdXJ2YXR1cmU9IjAiIGlkPSJwYXRoODYxIiBzdHlsZT0iZm9udC12YXJpYW50LWxpZ2F0dXJlczpub3JtYWw7Zm9udC12YXJpYW50LWNhcHM6bm9ybWFsO2ZvbnQtdmFyaWFudC1udW1lcmljOm5vcm1hbDtmb250LXZhcmlhbnQtZWFzdC1hc2lhbjpub3JtYWw7ZmlsbDojZmZmZmZmO2ZpbGwtb3BhY2l0eToxIiBkPSJtIDIzOC45OCwyNDAuNzIgaCAtMS43NTIgbCAtNC4xMjgsLTYuOTM2IGggLTMuNDA4IHYgNi45MzYgaCAtMS40ODggdiAtMTYuODcyIGggNC40NCBxIDEuNTEyLDAgMi41MiwwLjQzMiAxLjAzMiwwLjQzMiAxLjY1NiwxLjE1MiAwLjYyNCwwLjY5NiAwLjg4OCwxLjU4NCAwLjI4OCwwLjg2NCAwLjI4OCwxLjc1MiAwLDAuOTM2IC0wLjI2NCwxLjcwNCAtMC4yNjQsMC43NjggLTAuNzIsMS4zNDQgLTAuNDU2LDAuNTc2IC0xLjA4LDAuOTg0IC0wLjYsMC40MDggLTEuMjcyLDAuNjQ4IHogbSAtMi40NzIsLTExLjg4IHEgMCwtMS42OCAtMC45NiwtMi42NjQgLTAuOTM2LC0wLjk4NCAtMy4wNzIsLTAuOTg0IGggLTIuNzg0IHYgNy4yNzIgaCAyLjg4IHEgMi4wNCwwIDIuOTc2LC0wLjk4NCAwLjk2LC0wLjk4NCAwLjk2LC0yLjY0IHoiLz4mI3hhOyAgICAgIDwvZz4mI3hhOyAgICAgIDxnIGlkPSJnODcxIiBmaWxsPSIjMDBjOWZmIj4mI3hhOyAgICAgICAgPHBhdGggaW5rc2NhcGU6Y29ubmVjdG9yLWN1cnZhdHVyZT0iMCIgaWQ9InBhdGg4NjUiIHN0eWxlPSJmb250LXZhcmlhbnQtbGlnYXR1cmVzOm5vcm1hbDtmb250LXZhcmlhbnQtY2Fwczpub3JtYWw7Zm9udC12YXJpYW50LW51bWVyaWM6bm9ybWFsO2ZvbnQtdmFyaWFudC1lYXN0LWFzaWFuOm5vcm1hbCIgZD0ibSAyNDIuNDIsMjIyLjcyIGggMi4xMzYgdiAxOCBoIC0yLjEzNiB6Ii8+JiN4YTsgICAgICAgIDxwYXRoIGlua3NjYXBlOmNvbm5lY3Rvci1jdXJ2YXR1cmU9IjAiIGlkPSJwYXRoODY3IiBzdHlsZT0iZm9udC12YXJpYW50LWxpZ2F0dXJlczpub3JtYWw7Zm9udC12YXJpYW50LWNhcHM6bm9ybWFsO2ZvbnQtdmFyaWFudC1udW1lcmljOm5vcm1hbDtmb250LXZhcmlhbnQtZWFzdC1hc2lhbjpub3JtYWwiIGQ9Im0gMjU1Ljk3LDIzNS4xMyBxIC0wLjAyNCwwIC0wLjMxMiwtMC4wNDggLTAuMjg4LC0wLjA0OCAtMC43MiwtMC4wNzIgLTAuNDMyLC0wLjA0OCAtMC45MzYsLTAuMDcyIC0wLjUwNCwtMC4wNDggLTAuOTM2LC0wLjA0OCAtMC43NjgsMCAtMS4zMiwwLjE5MiAtMC41MjgsMC4xOTIgLTAuODY0LDAuNTI4IC0wLjMzNiwwLjMxMiAtMC41MDQsMC43NDQgLTAuMTQ0LDAuNDMyIC0wLjE0NCwwLjkzNiAwLDEuMDMyIDAuNjcyLDEuNTM2IDAuNjk2LDAuNTA0IDEuOCwwLjUwNCAwLjYsMCAxLjE3NiwtMC4xOTIgMC41NzYsLTAuMTkyIDEuMDMyLC0wLjUyOCAwLjQ4LC0wLjM2IDAuNzY4LC0wLjgxNiAwLjI4OCwtMC40OCAwLjI4OCwtMS4wNTYgeiBtIDAuMTQ0LDUuNTkyIC0wLjA5NiwtMS4zNDQgcSAtMC41NTIsMC43NjggLTEuNjA4LDEuMjI0IC0xLjA1NiwwLjQzMiAtMi4xODQsMC40MzIgLTAuNzIsMCAtMS40NCwtMC4xOTIgLTAuNzIsLTAuMTkyIC0xLjI5NiwtMC42MjQgLTAuNTc2LC0wLjQzMiAtMC45NiwtMS4xNTIgLTAuMzYsLTAuNzIgLTAuMzYsLTEuNzc2IDAsLTEuODQ4IDEuMiwtMi45NTIgMS4yLC0xLjEwNCAzLjYsLTEuMTA0IDAuMzg0LDAgMC44NjQsMC4wMjQgMC40OCwwLjAyNCAwLjkxMiwwLjA3MiAwLjQzMiwwLjAyNCAwLjc2OCwwLjA3MiAwLjMzNiwwLjAyNCAwLjQ1NiwwLjA0OCB2IC0wLjc0NCBxIDAsLTEuMzIgLTAuNzkyLC0xLjg5NiAtMC43NjgsLTAuNTc2IC0yLjIwOCwtMC41NzYgLTEuMjk2LDAgLTIuMjA4LDAuMjg4IC0wLjg4OCwwLjI4OCAtMS4yOTYsMC41MjggbCAtMC42NDgsLTEuNTEyIHEgMC4yMTYsLTAuMTQ0IDAuNiwtMC4zMzYgMC4zODQsLTAuMTkyIDAuOTM2LC0wLjM2IDAuNTc2LC0wLjE5MiAxLjI5NiwtMC4zMTIgMC43NDQsLTAuMTIgMS42NTYsLTAuMTIgMi4xODQsMCAzLjQ1NiwxLjA4IDEuMjcyLDEuMDU2IDEuMjcyLDMuMDk2IHYgOC4xMzYgeiIvPiYjeGE7ICAgICAgICA8cGF0aCBpbmtzY2FwZTpjb25uZWN0b3ItY3VydmF0dXJlPSIwIiBpZD0icGF0aDg2OSIgc3R5bGU9ImZvbnQtdmFyaWFudC1saWdhdHVyZXM6bm9ybWFsO2ZvbnQtdmFyaWFudC1jYXBzOm5vcm1hbDtmb250LXZhcmlhbnQtbnVtZXJpYzpub3JtYWw7Zm9udC12YXJpYW50LWVhc3QtYXNpYW46bm9ybWFsIiBkPSJtIDI2Mi4xOSwyMjIuNzIgaCAyLjEzNiB2IDcuNDg4IHEgMC4wOTYsLTAuMjE2IDAuMzYsLTAuNTA0IDAuMjg4LC0wLjMxMiAwLjc0NCwtMC42IDAuNDU2LC0wLjI4OCAxLjA4LC0wLjQ4IDAuNjI0LC0wLjIxNiAxLjQ0LC0wLjIxNiAxLjMyLDAgMi4zMDQsMC40OCAwLjk4NCwwLjQ4IDEuNjMyLDEuMzIgMC42NDgsMC44NCAwLjk2LDEuOTY4IDAuMzEyLDEuMTA0IDAuMzEyLDIuNCAwLDEuNzc2IC0wLjQ4LDMgLTAuNDgsMS4yIC0xLjI0OCwxLjk0NCAtMC43NjgsMC43NDQgLTEuNzUyLDEuMDggLTAuOTYsMC4zMTIgLTEuOTQ0LDAuMzEyIC0wLjcyLDAgLTEuMjk2LC0wLjE0NCAtMC41NTIsLTAuMTIgLTAuOTg0LC0wLjMxMiAtMC40MzIsLTAuMTkyIC0wLjc0NCwtMC40MDggLTAuMjg4LC0wLjIxNiAtMC40NTYsLTAuNDA4IGwgLTAuMDk2LDEuMDggaCAtMS45NjggeiBtIDUuMjU2LDE2LjM0NCBxIDEuNjA4LDAgMi41NDQsLTEuMDU2IDAuOTYsLTEuMDggMC45NiwtMy40MzIgMCwtMC45MTIgLTAuMTkyLC0xLjY4IC0wLjE5MiwtMC43OTIgLTAuNiwtMS4zNDQgLTAuNDA4LC0wLjU3NiAtMS4wMzIsLTAuODg4IC0wLjYsLTAuMzEyIC0xLjQ0LC0wLjMxMiAtMS42NTYsMCAtMi41MiwxLjE1MiAtMC44NjQsMS4xNTIgLTAuODY0LDMuNTUyIHYgMi42MTYgcSAwLjMzNiwwLjQ1NiAxLjEyOCwwLjkzNiAwLjgxNiwwLjQ1NiAyLjAxNiwwLjQ1NiB6Ii8+JiN4YTsgICAgICA8L2c+JiN4YTsgICAgPC9nPiYjeGE7ICA8L2c+JiN4YTsgIDxnIGlkPSJnODc5IiB0cmFuc2Zvcm09InRyYW5zbGF0ZSgtMTA0LjI2LC05Ny42NTQpIj4mI3hhOyAgICA8cGF0aCBzdHlsZT0iZmlsbDojZmZmZmZmO2ZpbGwtb3BhY2l0eToxIiBpbmtzY2FwZTpjb25uZWN0b3ItY3VydmF0dXJlPSIwIiBpZD0icGF0aDg3NyIgZmlsbC1ydWxlPSJldmVub2RkIiBmaWxsPSIjMDAxMTM1IiBkPSJtIDE4My44OCwxMDguMDMgYyAtMC45MDUsMC4zMDYgLTMuNDk3LDEuNjUxIC01Ljc2MSwyLjk5IC0zLjg1MywyLjI3OCAtMTEuMDEzLDYuMzg1IC0xNS4xMTcsOC42NzIgLTguOTEsNC45NjUgLTEyLjIyMiw3LjI0IC0xMy42LDkuMzQgbCAtMS40LDIuMTM1IHYgNDggbCAxLjQ5NSwyLjIzNCBjIDAuOTgxLDEuNDY2IDIuMTQ5LDIuNjA0IDMuNCwzLjMxMSAxLjA0OCwwLjU5MyAyLjE3NSwxLjI0OSAyLjUwNSwxLjQ1NyAxLjQyNywwLjkwMSA2Ljg4MiwzLjk5OCA3LjA0MSwzLjk5OCAwLjA5NiwwIDAuOTM2LDAuNDkgMS44NjcsMS4wOSAwLjkzMSwwLjU5OSAyLjA2OCwxLjI5MyAyLjUyNywxLjU0MyA1LjExOCwyLjc3NSA2LjQ1NiwzLjU0MyA2Ljk5Niw0LjAxNSAwLjM0OCwwLjMwNCAwLjc0LDAuNTUyIDAuODczLDAuNTUyIDAuMjEyLDAgOS41MTEsNS4zNTkgMTEuMDk2LDYuMzkzIDUuMDY0LDMuMzA4IDkuMjg0LDMuNTU2IDE0LjIsMC44MzcgMS43NiwtMC45NzQgMy41NiwtMS45NjkgNCwtMi4yMTEgMC40NCwtMC4yNDIgMS41NzEsLTAuOTM2IDIuNTEzLC0xLjU0MiAwLjk0MiwtMC42MDcgMi40NzIsLTEuNDk1IDMuNCwtMS45NzQgMC45MjgsLTAuNDc5IDMuMjU3LC0xLjgyMyA1LjE3NSwtMi45ODcgMS45MTgsLTEuMTY0IDMuNTcxLC0yLjExNiAzLjY3MiwtMi4xMTYgMC4xMDIsMCAyLjg1MiwtMS41NzYgNi4xMTIsLTMuNTAzIDMuMjYxLC0xLjkyNyA2LjU3MiwtMy44NDEgNy4zNTksLTQuMjU0IDMuMDI3LC0xLjU4OCA0LjYxNiwtMi45NTIgNS44NjksLTUuMDQxIGwgMS4zLC0yLjE2NyAtMC4wMDQsLTIzLjYxNyAtMC4wMDQsLTIzLjYxOCAtMS4xODQsLTIuMDY2IGMgLTAuNjUyLC0xLjEzNiAtMS44NjUsLTIuNTQxIC0yLjY5NywtMy4xMjEgLTEuNzk1LC0xLjI1NCAtMTEuNTY3LC02Ljk1MSAtMTcuMTExLC05Ljk3NiAtMC40NCwtMC4yNDEgLTEuMDcsLTAuNjQyIC0xLjQsLTAuODkyIC0wLjMzLC0wLjI1MSAtMS41LC0wLjkzNSAtMi42LC0xLjUyMiAtMS4xLC0wLjU4NiAtMi4zNTMsLTEuMjgxIC0yLjc4NSwtMS41NDQgLTguNzg2LC01LjM1NyAtMTEuMDE0LC01Ljg4OSAtMTIuOTk4LC0zLjEwMyAtMC43OTIsMS4xMTIgLTAuODE3LDEuNjY5IC0wLjgxNywxOC4yMDYgdiAxNy4wNTkgbCAxLjUsMC41OTcgYyA0LjUzNSwxLjgwNyA1LjI3NiwyLjIwOSA3Ljg4NSw0LjI3OCAyLjMwNSwxLjgyOSA2LjgxMzgsOC4zNTc3IDYuODEzOCw5LjU2MTcgMCwwLjI5NCAtMC4zNDY4LC0wLjQ1MDczIC0wLjAzNzgsMC4wMzYzIDIuMDg3LDMuMjk3IDEuNTY5LDExLjM3MyAtMS4wNTMsMTYuNDE1IC0xMS43NiwyMi42MTMgLTQ1LjQ5MywxMC41IC00MC4xNDYsLTE0LjQxNyAxLjQzMywtNi42NzggMTAuMTMyLC0xNS41NjkgMTUuMTI2LC0xNS43MTIgMS45NTksLTAuMDU2MSAxLjkxMiwtMC43ODQgMS45MTIsLTE3LjkwOSAwLC0xNy4wMTcgLTAuMDMzLC0xNy4zNTIgLTEuODU5LC0xOC45MzYgLTEuMTE5LC0wLjk3IC0yLjI0NiwtMS4xMDYgLTQuMDYzLC0wLjQ5MiBtIDEuNTc3LDE1LjM3NCBjIDAuMDEyLDUuODEgMC4wMDQsMTIuMjkxIC0wLjAxNywxNC40MDIgbCAtMC4wMzgsMy44MzkgLTIuOTc4LDEuNDcyIGMgLTI0LjEzMywxMS45MjcgLTE1LjY5Nyw0OC4zNzQgMTEuMTc4LDQ4LjI5IDI3LjM3NywtMC4wODUgMzUuNDcsLTM2LjEgMTAuOTEzLC00OC41NjUgbCAtMi41MTMsLTEuMjc1IHYgLTI5LjIgbCAwLjk3OSwwLjEwOSBjIDAuNTM4LDAuMDYgMS4yNTgsMC4zNSAxLjYsMC42NDQgMC4zNDEsMC4yOTMgMS44NTUsMS4yMDMgMy4zNjQsMi4wMjEgMS41MDgsMC44MTggMy44OTYsMi4xOTMgNS4zMDcsMy4wNTYgMS40MSwwLjg2NCAyLjYzNSwxLjU3IDIuNzIzLDEuNTcgMC4yNTYsMCAxMy4wMTIsNy40MjcgMTUuNTk5LDkuMDgyIDQuMjM3LDIuNzEyIDQuMDEzLDEuMjkxIDQuMTIyLDI2LjExOCBsIDAuMDk1LDIxLjQgLTAuOTI1LDEuOCBjIC0wLjkxMywxLjc3NSAtMi41MjMsMy4xMzcgLTUuNjY0LDQuNzg5IC0xLjY2MSwwLjg3MyAtMi41MDIsMS4zNjUgLTQuMTk4LDIuNDU0IC0wLjU1MSwwLjM1NCAtMi4wODIsMS4yMzkgLTMuNDAyLDEuOTY2IC0zLjcyNywyLjA1MyAtNC40MDEsMi40NCAtMTAuOCw2LjE5NSAtMy4zLDEuOTM3IC02LjcyLDMuOTA5IC03LjYsNC4zODIgLTAuODgsMC40NzMgLTMuMDU4LDEuNzA1IC00LjgzOSwyLjczNyAtNC45MjQsMi44NTMgLTUuMDEzLDIuODMxIC0xNi4zNiwtNC4wMDYgLTAuNDQsLTAuMjY1IC0xLjIzNCwtMC42NzcgLTEuNzY0LC0wLjkxNCAtMC41MjksLTAuMjM3IC0xLjc1MywtMC45NjUgLTIuNzIsLTEuNjE3IC0wLjk2NiwtMC42NTIgLTEuODkzLC0xLjE4NiAtMi4wNTksLTEuMTg2IC0wLjE2NiwwIC0xLjE5MiwtMC41NjkgLTIuMjgsLTEuMjY1IC0yLjEwOCwtMS4zNDkgLTkuMzg1LC01LjUzNSAtOS42MjIsLTUuNTM1IC0wLjA3NywwIC0xLjA5MywtMC41ODUgLTIuMjU4LC0xLjMgLTEuMTY1LC0wLjcxNSAtMi40NzMsLTEuNTE4IC0yLjkwOCwtMS43ODUgLTAuNDM0LC0wLjI2NyAtMS41NiwtMC44ODYgLTIuNTAxLC0xLjM3NiAtMC45NDEsLTAuNDkgLTIuMjAxLC0xLjUzMiAtMi44LC0yLjMxNSBsIC0xLjA4OSwtMS40MjQgdiAtNDUuNjIgbCAwLjkxLC0xLjE1NiBjIDAuODQ0LC0xLjA3MyA1LjExOSwtNC4xODcgNS43ODMsLTQuMjEzIDAuMTYxLC0wLjAwNiAxLjQ2OSwtMC43MzEgMi45MDcsLTEuNjExIDEuNDM4LC0wLjg4IDIuNzA4LC0xLjYgMi44MjMsLTEuNiAwLjExNSwwIDAuNjk3LC0wLjMzNSAxLjI5MywtMC43NDQgMS4xMywtMC43NzUgMTAuODEzLC02LjM4MyAxNC4yODQsLTguMjcxIDEuMSwtMC41OTkgMi4yNywtMS4zMTcgMi42LC0xLjU5NiAwLjc0NCwtMC42MjggMi4wOTQsLTAuOTQxIDIuNTE3LC0wLjU4MyAwLjE3NCwwLjE0NyAwLjMyNiw1LjAyMSAwLjMzOCwxMC44MzEiLz4mI3hhOyAgPC9nPiYjeGE7PC9zdmc+" vertex="1" parent="eG74CIP6f15DdXFKIOs7-1">
          <mxGeometry x="347" y="224.41" width="159" height="133" as="geometry" />
        </mxCell>
      </root>
    </mxGraphModel>
  </diagram>
</mxfile>
